<svg id="Layer_1" data-name="Layer 1" xmlns="http://www.w3.org/2000/svg" xmlns:xlink="http://www.w3.org/1999/xlink" width="1019" height="650" viewBox="0 0 1019 650">
  <defs>
    <clipPath id="clip-path">
      <rect x="351.81" y="45" width="315.39" height="560" fill="none"/>
    </clipPath>
  </defs>
  <g>
    <rect width="1019" height="650" fill="#f2f2f6"/>
    <g>
      <g id="Light_Backdrop_Bottom_sheet" data-name="Light Backdrop Bottom sheet">
        <g clip-path="url(#clip-path)">
          <g id="Mask_Group_2" data-name="Mask Group 2">
            <g id="Light_Elevation_00dp" data-name="Light Elevation 00dp">
              <g id="Shadow">
                <rect id="Rectangle-7" x="351.81" y="45" width="315.39" height="560" fill="#fff"/>
                <rect id="Rectangle-8" x="351.81" y="45" width="315.39" height="560" fill="#fff"/>
                <rect id="Rectangle-9" x="351.81" y="45" width="315.39" height="560" fill="#fff"/>
              </g>
            </g>
            <path id="Backdrop_Elements_Front_Layer" data-name="Backdrop Elements Front Layer" d="M355.31,45H663.69a3.68,3.68,0,0,1,3.5,3.84V605H351.81V48.84A3.68,3.68,0,0,1,355.31,45Z" fill="#fff"/>
          </g>
        </g>
      </g>
      <g id="_States" data-name=" States">
        <path id="States_Light_Primary_Container_100_Overlay" data-name="States Light Primary Container 100 Overlay" d="M370.2,314.13H648.8a3.5,3.5,0,0,1,3.5,3.5v33.25a3.5,3.5,0,0,1-3.5,3.5H370.2a3.5,3.5,0,0,1-3.5-3.5V317.63A3.5,3.5,0,0,1,370.2,314.13Z" fill="#1bd742"/>
      </g>
      <g id="Light_Elevation_00dp-2" data-name="Light Elevation 00dp-2">
        <rect id="Rectangle-10" x="351.81" y="66" width="315.39" height="49" fill="#fff"/>
      </g>
      <rect id="Primary-2" x="351.81" y="45" width="315.39" height="70"/>
      <rect x="351.81" y="66" width="315.39" height="49" fill="none"/>
      <g id="_Page_Title" data-name=" Page Title" style="isolation: isolate">
        <g style="isolation: isolate">
          <path d="M418.43,96.62h-2.15V84.18h2.15Z" fill="#fff"/>
          <path d="M423.4,92v4.61h-2.17V84.18H426a4.86,4.86,0,0,1,3.32,1.09,3.66,3.66,0,0,1,1.22,2.87,3.54,3.54,0,0,1-1.2,2.85A5,5,0,0,1,426,92Zm0-1.74H426a2.51,2.51,0,0,0,1.76-.55,2,2,0,0,0,.61-1.56,2.1,2.1,0,0,0-.62-1.61,2.32,2.32,0,0,0-1.69-.62H423.4Z" fill="#fff"/>
          <path d="M432.38,85a1.12,1.12,0,0,1,.3-.8,1.38,1.38,0,0,1,1.74,0,1.09,1.09,0,0,1,.31.8,1.06,1.06,0,0,1-.31.78,1.38,1.38,0,0,1-1.74,0A1.09,1.09,0,0,1,432.38,85Zm2.2,11.64H432.5V87.38h2.08Z" fill="#fff"/>
          <path d="M437.72,96.62v-7.7h-1.41V87.38h1.41v-.85a3.17,3.17,0,0,1,.85-2.37,3.28,3.28,0,0,1,2.4-.84,4.93,4.93,0,0,1,1.16.15l-.05,1.63a3.74,3.74,0,0,0-.79-.07,1.33,1.33,0,0,0-1.49,1.53v.82h1.88v1.54H439.8v7.7Z" fill="#fff"/>
          <path d="M443.34,85a1.09,1.09,0,0,1,.31-.8,1.14,1.14,0,0,1,.87-.31,1.17,1.17,0,0,1,.87.31,1.13,1.13,0,0,1,.31.8,1.1,1.1,0,0,1-.31.78,1.17,1.17,0,0,1-.87.31,1.14,1.14,0,0,1-.87-.31A1.06,1.06,0,0,1,443.34,85Zm2.21,11.64h-2.08V87.38h2.08Z" fill="#fff"/>
          <path d="M451.76,95.14a1.88,1.88,0,0,0,1.29-.45,1.61,1.61,0,0,0,.55-1.12h1.95a3.09,3.09,0,0,1-.53,1.61,3.67,3.67,0,0,1-1.37,1.18,4.12,4.12,0,0,1-1.87.44,4,4,0,0,1-3.08-1.26,5,5,0,0,1-1.14-3.47v-.21a4.9,4.9,0,0,1,1.13-3.38,3.91,3.91,0,0,1,3.08-1.27,3.8,3.8,0,0,1,2.69,1,3.39,3.39,0,0,1,1.09,2.52H453.6a1.91,1.91,0,0,0-.55-1.3,1.76,1.76,0,0,0-1.29-.52,1.84,1.84,0,0,0-1.56.73,3.74,3.74,0,0,0-.56,2.22v.34a3.72,3.72,0,0,0,.55,2.24A1.83,1.83,0,0,0,451.76,95.14Z" fill="#fff"/>
          <path d="M462.8,96.62a2.85,2.85,0,0,1-.24-.86,3.49,3.49,0,0,1-4.71.24,2.52,2.52,0,0,1-.88-2,2.62,2.62,0,0,1,1.1-2.27,5.3,5.3,0,0,1,3.14-.79h1.28v-.61a1.66,1.66,0,0,0-.4-1.15,1.6,1.6,0,0,0-1.23-.43,1.86,1.86,0,0,0-1.16.35,1.11,1.11,0,0,0-.45.9h-2.08a2.28,2.28,0,0,1,.5-1.42,3.45,3.45,0,0,1,1.37-1,4.86,4.86,0,0,1,1.94-.37,3.93,3.93,0,0,1,2.6.81,2.94,2.94,0,0,1,1,2.3v4.17a4.64,4.64,0,0,0,.35,2v.14Zm-2.29-1.49a2.36,2.36,0,0,0,1.16-.3,2,2,0,0,0,.82-.8V92.28h-1.12a3.06,3.06,0,0,0-1.74.41,1.27,1.27,0,0,0-.58,1.13,1.18,1.18,0,0,0,.4,1A1.51,1.51,0,0,0,460.51,95.13Z" fill="#fff"/>
          <path d="M469.49,85.13v2.25h1.63v1.54h-1.63v5.16a1.11,1.11,0,0,0,.21.76,1,1,0,0,0,.75.24,3,3,0,0,0,.72-.09V96.6a5.09,5.09,0,0,1-1.36.2c-1.6,0-2.4-.88-2.4-2.65V88.92h-1.52V87.38h1.52V85.13Z" fill="#fff"/>
          <path d="M472.86,85a1.12,1.12,0,0,1,.3-.8,1.14,1.14,0,0,1,.87-.31,1.17,1.17,0,0,1,.87.31,1.09,1.09,0,0,1,.31.8,1.06,1.06,0,0,1-.31.78,1.17,1.17,0,0,1-.87.31,1.14,1.14,0,0,1-.87-.31A1.09,1.09,0,0,1,472.86,85Zm2.2,11.64H473V87.38h2.08Z" fill="#fff"/>
          <path d="M477.08,91.92a5.41,5.41,0,0,1,.54-2.45,3.86,3.86,0,0,1,1.51-1.68,4.27,4.27,0,0,1,2.24-.58,4.05,4.05,0,0,1,3,1.2,4.73,4.73,0,0,1,1.26,3.2v.49a5.5,5.5,0,0,1-.52,2.44,4,4,0,0,1-1.51,1.67,4.33,4.33,0,0,1-2.26.59,4,4,0,0,1-3.14-1.31A5,5,0,0,1,477.08,92Zm2.08.18a3.67,3.67,0,0,0,.59,2.23,2.06,2.06,0,0,0,3.28,0,4.13,4.13,0,0,0,.58-2.4,3.71,3.71,0,0,0-.6-2.23,1.94,1.94,0,0,0-1.64-.82,1.91,1.91,0,0,0-1.62.81A4.11,4.11,0,0,0,479.16,92.1Z" fill="#fff"/>
          <path d="M489.51,87.38l.06,1.07a3.31,3.31,0,0,1,2.7-1.24q2.88,0,2.94,3.31v6.1h-2.08v-6a1.92,1.92,0,0,0-.38-1.3,1.61,1.61,0,0,0-1.25-.42A2,2,0,0,0,489.63,90v6.58h-2.08V87.38Z" fill="#fff"/>
        </g>
      </g>
      <g id="ΩElements_System_bar_Primary" data-name="ΩElements System bar Primary">
        <rect id="Rectangle-11" x="351.81" y="45" width="315.39" height="21" opacity="0.2"/>
        <path id="Mask-3" d="M649.67,51.12h10.52l-5.26,8.76Zm-14,4.38A4.38,4.38,0,1,1,640,59.88,4.38,4.38,0,0,1,635.66,55.5Zm-15.77,4.38V51.12h8.76v8.76Z" fill="#b3b3b3"/>
      </g>
      <g id="_Body_2" data-name=" Body 2" style="isolation: isolate">
        <g style="isolation: isolate">
          <path d="M368,247v3.41h-1.15v-8.71h3.22a3.21,3.21,0,0,1,2.24.73,2.46,2.46,0,0,1,.81,1.93,2.43,2.43,0,0,1-.79,1.95A3.37,3.37,0,0,1,370,247Zm0-.94h2.07a2,2,0,0,0,1.41-.44,1.56,1.56,0,0,0,.49-1.25,1.63,1.63,0,0,0-.49-1.25,1.9,1.9,0,0,0-1.34-.48H368Z"/>
          <path d="M375.81,250.36H374.7v-9.19h1.11Z"/>
          <path d="M380.48,250.48a2.81,2.81,0,0,1-2.14-.87,3.19,3.19,0,0,1-.83-2.31v-.2a3.78,3.78,0,0,1,.37-1.72,2.85,2.85,0,0,1,1-1.19,2.63,2.63,0,0,1,1.43-.43,2.44,2.44,0,0,1,2,.84A3.61,3.61,0,0,1,383,247v.46h-4.39a2.23,2.23,0,0,0,.56,1.54,1.74,1.74,0,0,0,1.36.59,1.91,1.91,0,0,0,1-.24,2.54,2.54,0,0,0,.72-.63l.67.53A2.72,2.72,0,0,1,380.48,250.48Zm-.14-5.81a1.49,1.49,0,0,0-1.12.49,2.4,2.4,0,0,0-.57,1.37h3.25v-.09a2,2,0,0,0-.46-1.3A1.38,1.38,0,0,0,380.34,244.67Z"/>
          <path d="M388.5,250.36a2.17,2.17,0,0,1-.16-.69,2.45,2.45,0,0,1-1.84.81,2.23,2.23,0,0,1-1.57-.55,1.74,1.74,0,0,1-.62-1.37,1.84,1.84,0,0,1,.77-1.57,3.66,3.66,0,0,1,2.17-.56h1.07v-.51A1.25,1.25,0,0,0,388,245a1.41,1.41,0,0,0-1-.34,1.62,1.62,0,0,0-1,.3.86.86,0,0,0-.4.72h-1.12a1.55,1.55,0,0,1,.35-.94,2.31,2.31,0,0,1,.93-.71,3.12,3.12,0,0,1,1.3-.27,2.55,2.55,0,0,1,1.75.56,2,2,0,0,1,.66,1.54v3a3.65,3.65,0,0,0,.23,1.42v.1Zm-1.84-.85a1.94,1.94,0,0,0,1-.27,1.61,1.61,0,0,0,.67-.7v-1.32h-.86c-1.36,0-2,.39-2,1.19a1,1,0,0,0,.35.81A1.31,1.31,0,0,0,386.66,249.51Z"/>
          <path d="M395.15,248.64a.81.81,0,0,0-.34-.7,3.17,3.17,0,0,0-1.18-.42,5.42,5.42,0,0,1-1.33-.44,1.77,1.77,0,0,1-.73-.59,1.42,1.42,0,0,1-.24-.83,1.65,1.65,0,0,1,.67-1.34,2.64,2.64,0,0,1,1.73-.56,2.68,2.68,0,0,1,1.78.57,1.81,1.81,0,0,1,.69,1.46h-1.12a1,1,0,0,0-.38-.79,1.44,1.44,0,0,0-1-.33,1.49,1.49,0,0,0-1,.27.8.8,0,0,0-.34.68.68.68,0,0,0,.31.61,4.49,4.49,0,0,0,1.15.39,5.93,5.93,0,0,1,1.35.44,2,2,0,0,1,.76.62,1.47,1.47,0,0,1,.25.88,1.64,1.64,0,0,1-.7,1.39,2.89,2.89,0,0,1-1.8.53,3.33,3.33,0,0,1-1.38-.28,2.15,2.15,0,0,1-.93-.77,1.81,1.81,0,0,1-.34-1.07h1.11a1.14,1.14,0,0,0,.44.89,2.1,2.1,0,0,0,2.11.07A.79.79,0,0,0,395.15,248.64Z"/>
          <path d="M400.6,250.48a2.81,2.81,0,0,1-2.14-.87,3.15,3.15,0,0,1-.83-2.31v-.2a3.78,3.78,0,0,1,.37-1.72,2.85,2.85,0,0,1,1-1.19,2.63,2.63,0,0,1,1.43-.43,2.44,2.44,0,0,1,2,.84,3.61,3.61,0,0,1,.7,2.38v.46h-4.39a2.23,2.23,0,0,0,.56,1.54,1.72,1.72,0,0,0,1.36.59,1.91,1.91,0,0,0,1-.24,2.68,2.68,0,0,0,.72-.63l.67.53A2.72,2.72,0,0,1,400.6,250.48Zm-.14-5.81a1.48,1.48,0,0,0-1.12.49,2.33,2.33,0,0,0-.57,1.37H402v-.09a2.09,2.09,0,0,0-.46-1.3A1.39,1.39,0,0,0,400.46,244.67Z"/>
          <path d="M409.37,242.32v1.56h1.2v.86h-1.2v4a.87.87,0,0,0,.16.58.67.67,0,0,0,.55.2,3.27,3.27,0,0,0,.52-.07v.89a3.17,3.17,0,0,1-.85.12,1.4,1.4,0,0,1-1.12-.45,2,2,0,0,1-.37-1.28v-4h-1.18v-.86h1.18v-1.56Z"/>
          <path d="M416.08,250.36a2.17,2.17,0,0,1-.16-.69,2.45,2.45,0,0,1-1.84.81,2.27,2.27,0,0,1-1.58-.55,1.76,1.76,0,0,1-.61-1.37,1.84,1.84,0,0,1,.77-1.57,3.64,3.64,0,0,1,2.17-.56h1.07v-.51a1.25,1.25,0,0,0-.34-.92,1.42,1.42,0,0,0-1-.34,1.6,1.6,0,0,0-1,.3.86.86,0,0,0-.4.72H412a1.55,1.55,0,0,1,.35-.94,2.31,2.31,0,0,1,.93-.71,3.09,3.09,0,0,1,1.3-.27,2.57,2.57,0,0,1,1.75.56,2,2,0,0,1,.66,1.54v3a3.65,3.65,0,0,0,.23,1.42v.1Zm-1.84-.85a1.94,1.94,0,0,0,1-.27,1.61,1.61,0,0,0,.67-.7v-1.32H415c-1.36,0-2,.39-2,1.19a1,1,0,0,0,.35.81A1.31,1.31,0,0,0,414.24,249.51Z"/>
          <path d="M424.43,247.19a3.86,3.86,0,0,1-.68,2.38,2.18,2.18,0,0,1-1.83.91,2.39,2.39,0,0,1-1.86-.75v3.11H419v-9h1l0,.72a2.28,2.28,0,0,1,1.88-.84,2.23,2.23,0,0,1,1.85.88,4,4,0,0,1,.68,2.45Zm-1.11-.12a2.86,2.86,0,0,0-.46-1.73,1.53,1.53,0,0,0-1.29-.64,1.63,1.63,0,0,0-1.51.9v3.09a1.64,1.64,0,0,0,1.52.88,1.49,1.49,0,0,0,1.27-.63A3.05,3.05,0,0,0,423.32,247.07Z"/>
          <path d="M429,247.06a3.83,3.83,0,0,1,.37-1.71,2.76,2.76,0,0,1,1-1.17,2.84,2.84,0,0,1,1.53-.42,2.75,2.75,0,0,1,2.14.92,3.54,3.54,0,0,1,.82,2.43v.08a3.76,3.76,0,0,1-.37,1.7,2.73,2.73,0,0,1-1,1.17,2.88,2.88,0,0,1-1.55.42,2.75,2.75,0,0,1-2.14-.92,3.52,3.52,0,0,1-.81-2.42Zm1.11.13a2.78,2.78,0,0,0,.5,1.73,1.7,1.7,0,0,0,2.68,0,3,3,0,0,0,.5-1.85,2.78,2.78,0,0,0-.51-1.73,1.68,1.68,0,0,0-2.67,0A3,3,0,0,0,430.11,247.19Z"/>
          <path d="M437.54,243.88l0,.82a2.36,2.36,0,0,1,1.94-.94c1.37,0,2.06.78,2.07,2.32v4.28h-1.11v-4.29a1.46,1.46,0,0,0-.32-1,1.29,1.29,0,0,0-1-.34,1.59,1.59,0,0,0-.94.29,2,2,0,0,0-.64.75v4.62h-1.11v-6.48Z"/>
          <path d="M448.22,242.32v1.56h1.21v.86h-1.21v4a.87.87,0,0,0,.16.58.68.68,0,0,0,.55.2,3.51,3.51,0,0,0,.53-.07v.89a3.23,3.23,0,0,1-.85.12,1.37,1.37,0,0,1-1.12-.45,2,2,0,0,1-.38-1.28v-4h-1.18v-.86h1.18v-1.56Z"/>
          <path d="M452,244.67a2.36,2.36,0,0,1,1.91-.91c1.37,0,2.06.78,2.08,2.32v4.28h-1.11v-4.29a1.51,1.51,0,0,0-.32-1,1.31,1.31,0,0,0-1-.34,1.62,1.62,0,0,0-.95.29,1.92,1.92,0,0,0-.63.75v4.62h-1.11v-9.19H452Z"/>
          <path d="M460.58,250.48a2.81,2.81,0,0,1-2.14-.87,3.19,3.19,0,0,1-.83-2.31v-.2a3.92,3.92,0,0,1,.37-1.72,2.92,2.92,0,0,1,1-1.19,2.64,2.64,0,0,1,1.44-.43,2.42,2.42,0,0,1,2,.84,3.56,3.56,0,0,1,.7,2.38v.46h-4.39a2.28,2.28,0,0,0,.56,1.54,1.74,1.74,0,0,0,1.36.59,2,2,0,0,0,1-.24,2.5,2.5,0,0,0,.71-.63l.68.53A2.74,2.74,0,0,1,460.58,250.48Zm-.13-5.81a1.5,1.5,0,0,0-1.13.49,2.39,2.39,0,0,0-.56,1.37H462v-.09a2.09,2.09,0,0,0-.45-1.3A1.39,1.39,0,0,0,460.45,244.67Z"/>
          <path d="M473.32,247.19a3.86,3.86,0,0,1-.68,2.38,2.18,2.18,0,0,1-1.83.91,2.38,2.38,0,0,1-1.86-.75v3.11h-1.11v-9h1l.05.72a2.28,2.28,0,0,1,1.88-.84,2.23,2.23,0,0,1,1.85.88,4,4,0,0,1,.68,2.45Zm-1.11-.12a2.87,2.87,0,0,0-.47-1.73,1.52,1.52,0,0,0-1.28-.64,1.63,1.63,0,0,0-1.51.9v3.09a1.63,1.63,0,0,0,1.52.88,1.5,1.5,0,0,0,1.27-.63A3.12,3.12,0,0,0,472.21,247.07Z"/>
          <path d="M478.07,244.88a3.16,3.16,0,0,0-.55,0,1.45,1.45,0,0,0-1.48.92v4.6h-1.11v-6.48H476l0,.75a1.72,1.72,0,0,1,1.55-.87,1.07,1.07,0,0,1,.49.09Z"/>
          <path d="M481.87,250.48a2.85,2.85,0,0,1-2.15-.87,3.18,3.18,0,0,1-.82-2.31v-.2a3.78,3.78,0,0,1,.37-1.72,2.85,2.85,0,0,1,1-1.19,2.63,2.63,0,0,1,1.43-.43,2.44,2.44,0,0,1,2,.84,3.61,3.61,0,0,1,.7,2.38v.46H480a2.23,2.23,0,0,0,.56,1.54,1.72,1.72,0,0,0,1.36.59,1.91,1.91,0,0,0,1-.24,2.68,2.68,0,0,0,.72-.63l.67.53A2.72,2.72,0,0,1,481.87,250.48Zm-.14-5.81a1.48,1.48,0,0,0-1.12.49,2.33,2.33,0,0,0-.57,1.37h3.25v-.09a2.09,2.09,0,0,0-.46-1.3A1.39,1.39,0,0,0,481.73,244.67Z"/>
          <path d="M486.43,250.36v-5.62h-1v-.86h1v-.66a2.22,2.22,0,0,1,.56-1.61,2.09,2.09,0,0,1,1.57-.57,3.23,3.23,0,0,1,.76.1l-.06.9a2.74,2.74,0,0,0-.59-.06,1.11,1.11,0,0,0-.84.32,1.3,1.3,0,0,0-.29.9v.68h1.38v.86h-1.38v5.62Z"/>
          <path d="M492.9,250.48a2.85,2.85,0,0,1-2.15-.87,3.18,3.18,0,0,1-.82-2.31v-.2a3.78,3.78,0,0,1,.37-1.72,2.78,2.78,0,0,1,1-1.19,2.63,2.63,0,0,1,1.43-.43,2.4,2.4,0,0,1,2,.84,3.56,3.56,0,0,1,.71,2.38v.46H491a2.23,2.23,0,0,0,.56,1.54,1.72,1.72,0,0,0,1.36.59,1.91,1.91,0,0,0,1-.24,2.68,2.68,0,0,0,.72-.63l.67.53A2.73,2.73,0,0,1,492.9,250.48Zm-.14-5.81a1.51,1.51,0,0,0-1.13.49,2.39,2.39,0,0,0-.56,1.37h3.25v-.09a2.09,2.09,0,0,0-.46-1.3A1.39,1.39,0,0,0,492.76,244.67Z"/>
          <path d="M500.05,244.88a3.16,3.16,0,0,0-.55,0,1.46,1.46,0,0,0-1.48.92v4.6h-1.1v-6.48H498l0,.75a1.74,1.74,0,0,1,1.55-.87,1.07,1.07,0,0,1,.49.09Z"/>
          <path d="M504.41,244.88a3.16,3.16,0,0,0-.55,0,1.45,1.45,0,0,0-1.48.92v4.6h-1.11v-6.48h1.08l0,.75a1.72,1.72,0,0,1,1.55-.87,1.1,1.1,0,0,1,.49.09Z"/>
          <path d="M508.21,250.48a2.81,2.81,0,0,1-2.14-.87,3.15,3.15,0,0,1-.83-2.31v-.2a3.78,3.78,0,0,1,.37-1.72,2.85,2.85,0,0,1,1-1.19,2.63,2.63,0,0,1,1.43-.43,2.44,2.44,0,0,1,2,.84,3.61,3.61,0,0,1,.7,2.38v.46h-4.39a2.23,2.23,0,0,0,.56,1.54,1.72,1.72,0,0,0,1.36.59,1.91,1.91,0,0,0,1-.24,2.54,2.54,0,0,0,.72-.63l.67.53A2.73,2.73,0,0,1,508.21,250.48Zm-.14-5.81a1.48,1.48,0,0,0-1.12.49,2.33,2.33,0,0,0-.57,1.37h3.25v-.09a2,2,0,0,0-.46-1.3A1.39,1.39,0,0,0,508.07,244.67Z"/>
          <path d="M512,247.07a3.8,3.8,0,0,1,.7-2.4,2.41,2.41,0,0,1,3.66-.13v-3.37h1.1v9.19h-1l-.06-.7a2.24,2.24,0,0,1-1.85.82,2.19,2.19,0,0,1-1.83-.93,3.77,3.77,0,0,1-.71-2.4Zm1.11.12a2.91,2.91,0,0,0,.45,1.73,1.48,1.48,0,0,0,1.26.62,1.63,1.63,0,0,0,1.54-.95v-3a1.63,1.63,0,0,0-1.53-.92,1.48,1.48,0,0,0-1.27.63A3.19,3.19,0,0,0,513.07,247.19Z"/>
          <path d="M523.64,243.88l0,.72a2.39,2.39,0,0,1,1.92-.84,1.85,1.85,0,0,1,1.85,1.05,2.45,2.45,0,0,1,.84-.76,2.54,2.54,0,0,1,1.23-.29c1.42,0,2.14.76,2.17,2.26v4.34h-1.11v-4.27a1.49,1.49,0,0,0-.32-1,1.4,1.4,0,0,0-1.07-.35,1.43,1.43,0,0,0-1.49,1.36v4.3h-1.12v-4.24a1.24,1.24,0,0,0-1.38-1.42,1.48,1.48,0,0,0-1.49.93v4.73h-1.11v-6.48Z"/>
          <path d="M536.24,250.48a2.83,2.83,0,0,1-2.14-.87,3.19,3.19,0,0,1-.83-2.31v-.2a3.92,3.92,0,0,1,.37-1.72,2.92,2.92,0,0,1,1-1.19,2.64,2.64,0,0,1,1.44-.43,2.42,2.42,0,0,1,2,.84,3.56,3.56,0,0,1,.7,2.38v.46h-4.39a2.28,2.28,0,0,0,.56,1.54,1.74,1.74,0,0,0,1.36.59,1.92,1.92,0,0,0,1-.24,2.5,2.5,0,0,0,.71-.63l.68.53A2.74,2.74,0,0,1,536.24,250.48Zm-.13-5.81a1.5,1.5,0,0,0-1.13.49,2.39,2.39,0,0,0-.56,1.37h3.24v-.09a2.09,2.09,0,0,0-.45-1.3A1.39,1.39,0,0,0,536.11,244.67Z"/>
          <path d="M544,248.64a.84.84,0,0,0-.34-.7,3.24,3.24,0,0,0-1.18-.42,5.52,5.52,0,0,1-1.34-.44,1.84,1.84,0,0,1-.73-.59,1.42,1.42,0,0,1-.24-.83,1.66,1.66,0,0,1,.68-1.34,2.62,2.62,0,0,1,1.72-.56,2.72,2.72,0,0,1,1.79.57,1.83,1.83,0,0,1,.68,1.46H544a1,1,0,0,0-.39-.79,1.43,1.43,0,0,0-1-.33,1.51,1.51,0,0,0-1,.27.83.83,0,0,0-.34.68.69.69,0,0,0,.32.61,4.21,4.21,0,0,0,1.15.39,5.83,5.83,0,0,1,1.34.44,1.93,1.93,0,0,1,.76.62,1.47,1.47,0,0,1,.25.88,1.66,1.66,0,0,1-.69,1.39,2.91,2.91,0,0,1-1.8.53,3.33,3.33,0,0,1-1.38-.28,2.24,2.24,0,0,1-.94-.77,1.89,1.89,0,0,1-.34-1.07h1.11a1.15,1.15,0,0,0,.45.89,2.09,2.09,0,0,0,2.1.07A.78.78,0,0,0,544,248.64Z"/>
          <path d="M550.57,248.64a.81.81,0,0,0-.34-.7,3.24,3.24,0,0,0-1.18-.42,5.52,5.52,0,0,1-1.34-.44,1.84,1.84,0,0,1-.73-.59,1.5,1.5,0,0,1-.23-.83,1.65,1.65,0,0,1,.67-1.34,2.62,2.62,0,0,1,1.72-.56,2.71,2.71,0,0,1,1.79.57,1.81,1.81,0,0,1,.69,1.46H550.5a1,1,0,0,0-.38-.79,1.69,1.69,0,0,0-1.92-.06.81.81,0,0,0-.35.68.69.69,0,0,0,.32.61,4.35,4.35,0,0,0,1.15.39,5.83,5.83,0,0,1,1.34.44,2,2,0,0,1,.77.62,1.55,1.55,0,0,1,.25.88A1.67,1.67,0,0,1,551,250a2.89,2.89,0,0,1-1.8.53,3.33,3.33,0,0,1-1.38-.28,2.24,2.24,0,0,1-.94-.77,1.88,1.88,0,0,1-.33-1.07h1.1a1.15,1.15,0,0,0,.45.89,1.77,1.77,0,0,0,1.1.32,1.8,1.8,0,0,0,1-.25A.79.79,0,0,0,550.57,248.64Z"/>
          <path d="M557.33,250.36a2.17,2.17,0,0,1-.16-.69,2.45,2.45,0,0,1-1.84.81,2.25,2.25,0,0,1-1.57-.55,1.74,1.74,0,0,1-.62-1.37,1.84,1.84,0,0,1,.77-1.57,3.66,3.66,0,0,1,2.17-.56h1.07v-.51a1.25,1.25,0,0,0-.34-.92,1.41,1.41,0,0,0-1-.34,1.62,1.62,0,0,0-1,.3.86.86,0,0,0-.4.72h-1.12a1.55,1.55,0,0,1,.35-.94,2.31,2.31,0,0,1,.93-.71,3.12,3.12,0,0,1,1.3-.27,2.55,2.55,0,0,1,1.75.56,2,2,0,0,1,.66,1.54v3a3.65,3.65,0,0,0,.23,1.42v.1Zm-1.84-.85a1.94,1.94,0,0,0,1-.27,1.61,1.61,0,0,0,.67-.7v-1.32h-.86c-1.36,0-2,.39-2,1.19a1,1,0,0,0,.35.81A1.31,1.31,0,0,0,555.49,249.51Z"/>
          <path d="M559.94,247.07a3.86,3.86,0,0,1,.7-2.41,2.25,2.25,0,0,1,1.86-.9,2.22,2.22,0,0,1,1.85.84l.06-.72h1v6.32a2.62,2.62,0,0,1-.75,2,2.76,2.76,0,0,1-2,.72,3.44,3.44,0,0,1-1.37-.29,2.44,2.44,0,0,1-1-.82l.58-.67a2.14,2.14,0,0,0,1.74.88,1.7,1.7,0,0,0,1.26-.45,1.75,1.75,0,0,0,.45-1.28v-.56a2.26,2.26,0,0,1-1.81.77,2.22,2.22,0,0,1-1.84-.92A4,4,0,0,1,559.94,247.07Zm1.12.12a2.88,2.88,0,0,0,.45,1.72,1.45,1.45,0,0,0,1.25.63,1.62,1.62,0,0,0,1.54-.95v-3a1.63,1.63,0,0,0-1.52-.93,1.49,1.49,0,0,0-1.27.63A3.19,3.19,0,0,0,561.06,247.19Z"/>
          <path d="M567.3,242.17a.69.69,0,0,1,.17-.46.63.63,0,0,1,.49-.18.66.66,0,0,1,.49.18.68.68,0,0,1,.16.46.64.64,0,0,1-.16.45.66.66,0,0,1-.49.18.63.63,0,0,1-.49-.18A.64.64,0,0,1,567.3,242.17Zm1.2,8.19h-1.11v-6.48h1.11Z"/>
          <path d="M571.53,243.88l0,.82a2.36,2.36,0,0,1,1.94-.94c1.37,0,2.06.78,2.07,2.32v4.28h-1.11v-4.29a1.46,1.46,0,0,0-.32-1,1.31,1.31,0,0,0-1-.34,1.64,1.64,0,0,0-.95.29,1.92,1.92,0,0,0-.63.75v4.62h-1.11v-6.48Z"/>
          <path d="M577.19,247.07a3.86,3.86,0,0,1,.7-2.41,2.25,2.25,0,0,1,1.86-.9,2.22,2.22,0,0,1,1.85.84l.06-.72h1v6.32a2.62,2.62,0,0,1-.75,2,2.76,2.76,0,0,1-2,.72,3.48,3.48,0,0,1-1.37-.29,2.44,2.44,0,0,1-1-.82l.58-.67a2.14,2.14,0,0,0,1.74.88,1.7,1.7,0,0,0,1.26-.45,1.75,1.75,0,0,0,.45-1.28v-.56a2.26,2.26,0,0,1-1.81.77,2.22,2.22,0,0,1-1.84-.92A4,4,0,0,1,577.19,247.07Zm1.12.12a2.88,2.88,0,0,0,.45,1.72,1.45,1.45,0,0,0,1.25.63,1.62,1.62,0,0,0,1.54-.95v-3a1.62,1.62,0,0,0-1.52-.93,1.49,1.49,0,0,0-1.27.63A3.19,3.19,0,0,0,578.31,247.19Z"/>
          <path d="M591.79,250.36a2.58,2.58,0,0,1-.15-.69,2.47,2.47,0,0,1-1.85.81,2.25,2.25,0,0,1-1.57-.55,1.73,1.73,0,0,1-.61-1.37,1.81,1.81,0,0,1,.77-1.57,3.63,3.63,0,0,1,2.16-.56h1.08v-.51a1.25,1.25,0,0,0-.35-.92,1.38,1.38,0,0,0-1-.34,1.63,1.63,0,0,0-1,.3.88.88,0,0,0-.4.72h-1.11a1.53,1.53,0,0,1,.34-.94A2.28,2.28,0,0,1,589,244a3,3,0,0,1,1.29-.27,2.58,2.58,0,0,1,1.76.56,2.06,2.06,0,0,1,.66,1.54v3a3.48,3.48,0,0,0,.23,1.42v.1Zm-1.84-.85a1.94,1.94,0,0,0,1-.27,1.63,1.63,0,0,0,.68-.7v-1.32h-.87c-1.36,0-2,.39-2,1.19a1,1,0,0,0,.35.81A1.31,1.31,0,0,0,590,249.51Z"/>
          <path d="M600.15,247.19a3.86,3.86,0,0,1-.68,2.38,2.18,2.18,0,0,1-1.83.91,2.38,2.38,0,0,1-1.86-.75v3.11h-1.11v-9h1l.06.72a2.28,2.28,0,0,1,1.88-.84,2.24,2.24,0,0,1,1.85.88,4,4,0,0,1,.68,2.45Zm-1.11-.12a2.87,2.87,0,0,0-.47-1.73,1.52,1.52,0,0,0-1.28-.64,1.63,1.63,0,0,0-1.51.9v3.09a1.63,1.63,0,0,0,1.52.88,1.51,1.51,0,0,0,1.27-.63A3.12,3.12,0,0,0,599,247.07Z"/>
          <path d="M607.24,247.19a3.86,3.86,0,0,1-.68,2.38,2.18,2.18,0,0,1-1.83.91,2.38,2.38,0,0,1-1.86-.75v3.11h-1.11v-9h1l.06.72a2.28,2.28,0,0,1,1.88-.84,2.24,2.24,0,0,1,1.85.88,4,4,0,0,1,.68,2.45Zm-1.11-.12a2.87,2.87,0,0,0-.47-1.73,1.52,1.52,0,0,0-1.28-.64,1.62,1.62,0,0,0-1.51.9v3.09a1.63,1.63,0,0,0,1.52.88,1.51,1.51,0,0,0,1.27-.63A3.12,3.12,0,0,0,606.13,247.07Z"/>
          <path d="M368.16,260.32v1.56h1.21v.86h-1.21v4a.87.87,0,0,0,.17.58.67.67,0,0,0,.55.2,3.42,3.42,0,0,0,.52-.07v.89a3.17,3.17,0,0,1-.85.12,1.38,1.38,0,0,1-1.12-.45,2,2,0,0,1-.37-1.28v-4h-1.18v-.86h1.18v-1.56Z"/>
          <path d="M372,262.67a2.37,2.37,0,0,1,1.92-.91c1.37,0,2.06.78,2.07,2.32v4.28h-1.11v-4.29a1.46,1.46,0,0,0-.32-1,1.29,1.29,0,0,0-1-.34,1.61,1.61,0,0,0-.94.29,2,2,0,0,0-.64.75v4.62h-1.1v-9.19H372Z"/>
          <path d="M380.53,268.48a2.85,2.85,0,0,1-2.15-.87,3.18,3.18,0,0,1-.82-2.31v-.2a3.78,3.78,0,0,1,.37-1.72,2.78,2.78,0,0,1,1-1.19,2.63,2.63,0,0,1,1.43-.43,2.4,2.4,0,0,1,2,.84,3.56,3.56,0,0,1,.71,2.38v.46h-4.39a2.23,2.23,0,0,0,.56,1.54,1.72,1.72,0,0,0,1.36.59,1.91,1.91,0,0,0,1-.24,2.5,2.5,0,0,0,.71-.63l.68.53A2.73,2.73,0,0,1,380.53,268.48Zm-.14-5.81a1.51,1.51,0,0,0-1.13.49,2.39,2.39,0,0,0-.56,1.37H382v-.09a2.09,2.09,0,0,0-.46-1.3A1.39,1.39,0,0,0,380.39,262.67Z"/>
          <path d="M385.59,261.88l0,.82a2.36,2.36,0,0,1,1.94-.94c1.37,0,2.06.78,2.07,2.32v4.28h-1.11v-4.29a1.46,1.46,0,0,0-.32-1,1.29,1.29,0,0,0-1-.34,1.61,1.61,0,0,0-.94.29,2,2,0,0,0-.64.75v4.62h-1.1v-6.48Z"/>
          <path d="M395.31,268.36v-5.62h-1v-.86h1v-.66a2.22,2.22,0,0,1,.56-1.61,2.09,2.09,0,0,1,1.57-.57,3.23,3.23,0,0,1,.76.1l-.06.9a2.77,2.77,0,0,0-.6-.06,1.1,1.1,0,0,0-.83.32,1.3,1.3,0,0,0-.29.9v.68h1.38v.86h-1.38v5.62Z"/>
          <path d="M398.94,265.06a3.83,3.83,0,0,1,.37-1.71,2.72,2.72,0,0,1,1.05-1.17,2.78,2.78,0,0,1,1.52-.42,2.73,2.73,0,0,1,2.14.92,3.49,3.49,0,0,1,.82,2.43v.08a3.89,3.89,0,0,1-.36,1.7,2.82,2.82,0,0,1-1,1.17,2.88,2.88,0,0,1-1.55.42,2.71,2.71,0,0,1-2.13-.92,3.48,3.48,0,0,1-.82-2.42Zm1.11.13a2.78,2.78,0,0,0,.5,1.73,1.6,1.6,0,0,0,1.34.65,1.58,1.58,0,0,0,1.34-.66,3,3,0,0,0,.5-1.85,2.78,2.78,0,0,0-.51-1.73,1.59,1.59,0,0,0-1.34-.66,1.57,1.57,0,0,0-1.32.66A2.94,2.94,0,0,0,400.05,265.19Z"/>
          <path d="M407.64,268.36h-1.11v-9.19h1.11Z"/>
          <path d="M410.83,268.36h-1.11v-9.19h1.11Z"/>
          <path d="M412.51,265.06a3.84,3.84,0,0,1,.38-1.71,2.7,2.7,0,0,1,1-1.17,2.78,2.78,0,0,1,1.52-.42,2.72,2.72,0,0,1,2.14.92,3.49,3.49,0,0,1,.82,2.43v.08a3.89,3.89,0,0,1-.36,1.7,2.75,2.75,0,0,1-1,1.17,2.85,2.85,0,0,1-1.54.42,2.75,2.75,0,0,1-2.14-.92,3.53,3.53,0,0,1-.82-2.42Zm1.12.13a2.72,2.72,0,0,0,.5,1.73,1.7,1.7,0,0,0,2.68,0,3,3,0,0,0,.49-1.85,2.77,2.77,0,0,0-.5-1.73,1.62,1.62,0,0,0-1.35-.66,1.59,1.59,0,0,0-1.32.66A2.94,2.94,0,0,0,413.63,265.19Z"/>
          <path d="M425.75,266.83l1.24-4.95h1.11l-1.89,6.48h-.89l-1.58-4.91-1.53,4.91h-.9l-1.88-6.48h1.1l1.28,4.85,1.51-4.85h.89Z"/>
          <path d="M432.69,260.17a.68.68,0,0,1,.16-.46.63.63,0,0,1,.49-.18.64.64,0,0,1,.49.18.69.69,0,0,1,.17.46.6.6,0,0,1-.66.63.63.63,0,0,1-.49-.18A.64.64,0,0,1,432.69,260.17Zm1.19,8.19h-1.1v-6.48h1.1Z"/>
          <path d="M436.91,261.88l0,.82a2.36,2.36,0,0,1,1.94-.94c1.37,0,2.06.78,2.07,2.32v4.28h-1.11v-4.29a1.46,1.46,0,0,0-.32-1,1.29,1.29,0,0,0-1-.34,1.59,1.59,0,0,0-.94.29,2,2,0,0,0-.64.75v4.62h-1.1v-6.48Z"/>
          <path d="M446.61,266.64a.83.83,0,0,0-.33-.7,3.24,3.24,0,0,0-1.18-.42,5.52,5.52,0,0,1-1.34-.44,1.84,1.84,0,0,1-.73-.59,1.42,1.42,0,0,1-.24-.83,1.66,1.66,0,0,1,.68-1.34,2.62,2.62,0,0,1,1.72-.56,2.72,2.72,0,0,1,1.79.57,1.83,1.83,0,0,1,.68,1.46h-1.11a1,1,0,0,0-.39-.79,1.44,1.44,0,0,0-1-.33,1.51,1.51,0,0,0-.95.27.8.8,0,0,0-.34.68.69.69,0,0,0,.32.61,4.21,4.21,0,0,0,1.15.39,5.83,5.83,0,0,1,1.34.44,1.93,1.93,0,0,1,.76.62,1.47,1.47,0,0,1,.25.88A1.66,1.66,0,0,1,447,268a3,3,0,0,1-1.81.53,3.32,3.32,0,0,1-1.37-.28,2.24,2.24,0,0,1-.94-.77,1.81,1.81,0,0,1-.34-1.07h1.11a1.15,1.15,0,0,0,.45.89,1.74,1.74,0,0,0,1.09.32,1.78,1.78,0,0,0,1-.25A.77.77,0,0,0,446.61,266.64Z"/>
          <path d="M450.88,260.32v1.56h1.21v.86h-1.21v4a.87.87,0,0,0,.16.58.68.68,0,0,0,.55.2,3.51,3.51,0,0,0,.53-.07v.89a3.23,3.23,0,0,1-.85.12,1.37,1.37,0,0,1-1.12-.45,1.9,1.9,0,0,1-.38-1.28v-4h-1.18v-.86h1.18v-1.56Z"/>
          <path d="M456.72,262.88a3.12,3.12,0,0,0-.54,0,1.45,1.45,0,0,0-1.48.92v4.6h-1.11v-6.48h1.08v.75a1.74,1.74,0,0,1,1.55-.87,1,1,0,0,1,.49.09Z"/>
          <path d="M462,267.72a2.38,2.38,0,0,1-1.9.76,2,2,0,0,1-1.58-.6,2.67,2.67,0,0,1-.55-1.78v-4.22H459v4.19q0,1.47,1.2,1.47a1.66,1.66,0,0,0,1.69-1v-4.71H463v6.48H462Z"/>
          <path d="M467.52,267.57a1.58,1.58,0,0,0,1-.36,1.22,1.22,0,0,0,.49-.89h1a2.07,2.07,0,0,1-.38,1.06,2.58,2.58,0,0,1-.95.8,2.86,2.86,0,0,1-3.35-.59,3.49,3.49,0,0,1-.78-2.41V265a3.92,3.92,0,0,1,.35-1.69,2.63,2.63,0,0,1,1-1.14,2.88,2.88,0,0,1,1.54-.41,2.57,2.57,0,0,1,1.81.66,2.32,2.32,0,0,1,.77,1.69h-1a1.53,1.53,0,0,0-.47-1,1.5,1.5,0,0,0-1.06-.41,1.57,1.57,0,0,0-1.31.61,2.86,2.86,0,0,0-.46,1.76v.21a2.77,2.77,0,0,0,.46,1.72A1.57,1.57,0,0,0,467.52,267.57Z"/>
          <path d="M473.05,260.32v1.56h1.21v.86h-1.21v4a.87.87,0,0,0,.16.58.68.68,0,0,0,.55.2,3.51,3.51,0,0,0,.53-.07v.89a3.23,3.23,0,0,1-.85.12,1.37,1.37,0,0,1-1.12-.45,2,2,0,0,1-.38-1.28v-4h-1.18v-.86h1.18v-1.56Z"/>
          <path d="M475.77,260.17a.68.68,0,0,1,.16-.46.63.63,0,0,1,.49-.18.64.64,0,0,1,.49.18.69.69,0,0,1,.17.46.6.6,0,0,1-.66.63.63.63,0,0,1-.49-.18A.64.64,0,0,1,475.77,260.17Zm1.19,8.19h-1.1v-6.48H477Z"/>
          <path d="M478.65,265.06a3.84,3.84,0,0,1,.38-1.71,2.7,2.7,0,0,1,1-1.17,2.78,2.78,0,0,1,1.52-.42,2.73,2.73,0,0,1,2.14.92,3.49,3.49,0,0,1,.82,2.43v.08a3.89,3.89,0,0,1-.36,1.7,2.75,2.75,0,0,1-1,1.17,2.86,2.86,0,0,1-1.55.42,2.73,2.73,0,0,1-2.13-.92,3.48,3.48,0,0,1-.82-2.42Zm1.12.13a2.72,2.72,0,0,0,.5,1.73,1.58,1.58,0,0,0,1.33.65,1.61,1.61,0,0,0,1.35-.66,3,3,0,0,0,.49-1.85,2.84,2.84,0,0,0-.5-1.73,1.62,1.62,0,0,0-1.35-.66,1.58,1.58,0,0,0-1.32.66A2.94,2.94,0,0,0,479.77,265.19Z"/>
          <path d="M487.2,261.88l0,.82a2.39,2.39,0,0,1,1.94-.94c1.37,0,2.06.78,2.08,2.32v4.28h-1.11v-4.29a1.51,1.51,0,0,0-.32-1,1.31,1.31,0,0,0-1-.34,1.62,1.62,0,0,0-.95.29,1.92,1.92,0,0,0-.63.75v4.62h-1.11v-6.48Z"/>
          <path d="M496.9,266.64a.81.81,0,0,0-.34-.7,3.24,3.24,0,0,0-1.18-.42,5.52,5.52,0,0,1-1.34-.44,1.84,1.84,0,0,1-.73-.59,1.5,1.5,0,0,1-.23-.83,1.65,1.65,0,0,1,.67-1.34,2.62,2.62,0,0,1,1.72-.56,2.71,2.71,0,0,1,1.79.57,1.81,1.81,0,0,1,.69,1.46h-1.12a1,1,0,0,0-.38-.79,1.69,1.69,0,0,0-1.92-.06.81.81,0,0,0-.35.68.69.69,0,0,0,.32.61,4.35,4.35,0,0,0,1.15.39,5.83,5.83,0,0,1,1.34.44,2,2,0,0,1,.77.62,1.55,1.55,0,0,1,.25.88,1.67,1.67,0,0,1-.7,1.39,2.89,2.89,0,0,1-1.8.53,3.33,3.33,0,0,1-1.38-.28,2.24,2.24,0,0,1-.94-.77,1.88,1.88,0,0,1-.33-1.07H494a1.15,1.15,0,0,0,.45.89,1.77,1.77,0,0,0,1.1.32,1.8,1.8,0,0,0,1-.25A.79.79,0,0,0,496.9,266.64Z"/>
          <path d="M502.61,265.06a3.83,3.83,0,0,1,.37-1.71,2.72,2.72,0,0,1,1-1.17,2.78,2.78,0,0,1,1.52-.42,2.73,2.73,0,0,1,2.14.92,3.49,3.49,0,0,1,.82,2.43v.08a3.89,3.89,0,0,1-.36,1.7,2.82,2.82,0,0,1-1,1.17,2.88,2.88,0,0,1-1.55.42,2.71,2.71,0,0,1-2.13-.92,3.48,3.48,0,0,1-.82-2.42Zm1.11.13a2.78,2.78,0,0,0,.5,1.73,1.7,1.7,0,0,0,2.68,0,3,3,0,0,0,.5-1.85,2.78,2.78,0,0,0-.51-1.73,1.59,1.59,0,0,0-1.34-.66,1.57,1.57,0,0,0-1.32.66A2.94,2.94,0,0,0,503.72,265.19Z"/>
          <path d="M511.15,261.88l0,.82a2.38,2.38,0,0,1,1.94-.94c1.37,0,2.06.78,2.07,2.32v4.28h-1.11v-4.29a1.46,1.46,0,0,0-.32-1,1.29,1.29,0,0,0-1-.34,1.61,1.61,0,0,0-.94.29,2,2,0,0,0-.64.75v4.62h-1.1v-6.48Z"/>
          <path d="M521.83,260.32v1.56H523v.86h-1.21v4a.87.87,0,0,0,.16.58.68.68,0,0,0,.55.2,3.36,3.36,0,0,0,.53-.07v.89a3.17,3.17,0,0,1-.85.12,1.37,1.37,0,0,1-1.12-.45,2,2,0,0,1-.38-1.28v-4h-1.18v-.86h1.18v-1.56Z"/>
          <path d="M525.65,262.67a2.37,2.37,0,0,1,1.92-.91c1.37,0,2.06.78,2.07,2.32v4.28h-1.11v-4.29a1.46,1.46,0,0,0-.32-1,1.31,1.31,0,0,0-1-.34,1.64,1.64,0,0,0-1,.29,1.92,1.92,0,0,0-.63.75v4.62h-1.11v-9.19h1.11Z"/>
          <path d="M534.19,268.48a2.83,2.83,0,0,1-2.14-.87,3.19,3.19,0,0,1-.83-2.31v-.2a3.92,3.92,0,0,1,.37-1.72,2.92,2.92,0,0,1,1-1.19,2.64,2.64,0,0,1,1.44-.43,2.42,2.42,0,0,1,2,.84,3.56,3.56,0,0,1,.7,2.38v.46h-4.39a2.33,2.33,0,0,0,.56,1.54,1.74,1.74,0,0,0,1.36.59,1.92,1.92,0,0,0,1-.24,2.5,2.5,0,0,0,.71-.63l.68.53A2.74,2.74,0,0,1,534.19,268.48Zm-.13-5.81a1.5,1.5,0,0,0-1.13.49,2.39,2.39,0,0,0-.56,1.37h3.24v-.09a2.09,2.09,0,0,0-.45-1.3A1.39,1.39,0,0,0,534.06,262.67Z"/>
          <path d="M545.23,266.64a.81.81,0,0,0-.34-.7,3.17,3.17,0,0,0-1.18-.42,5.42,5.42,0,0,1-1.33-.44,1.77,1.77,0,0,1-.73-.59,1.42,1.42,0,0,1-.24-.83,1.65,1.65,0,0,1,.67-1.34,2.63,2.63,0,0,1,1.72-.56,2.71,2.71,0,0,1,1.79.57,1.81,1.81,0,0,1,.69,1.46h-1.12a1,1,0,0,0-.38-.79,1.45,1.45,0,0,0-1-.33,1.48,1.48,0,0,0-.94.27.8.8,0,0,0-.34.68.68.68,0,0,0,.31.61,4.49,4.49,0,0,0,1.15.39,6.11,6.11,0,0,1,1.35.44,2,2,0,0,1,.76.62,1.55,1.55,0,0,1,.25.88,1.64,1.64,0,0,1-.7,1.39,2.89,2.89,0,0,1-1.8.53,3.33,3.33,0,0,1-1.38-.28,2.15,2.15,0,0,1-.93-.77,1.81,1.81,0,0,1-.34-1.07h1.1a1.18,1.18,0,0,0,.45.89,2.1,2.1,0,0,0,2.11.07A.79.79,0,0,0,545.23,266.64Z"/>
          <path d="M550.59,267.57a1.58,1.58,0,0,0,1-.36,1.27,1.27,0,0,0,.5-.89h1a2,2,0,0,1-.38,1.06,2.62,2.62,0,0,1-.94.8,2.74,2.74,0,0,1-1.25.3,2.68,2.68,0,0,1-2.11-.89,3.49,3.49,0,0,1-.78-2.41V265a3.92,3.92,0,0,1,.35-1.69,2.59,2.59,0,0,1,1-1.14,2.82,2.82,0,0,1,1.53-.41,2.57,2.57,0,0,1,1.81.66,2.28,2.28,0,0,1,.77,1.69h-1a1.58,1.58,0,0,0-.48-1,1.5,1.5,0,0,0-1.06-.41,1.57,1.57,0,0,0-1.31.61,2.86,2.86,0,0,0-.46,1.76v.21a2.77,2.77,0,0,0,.46,1.72A1.57,1.57,0,0,0,550.59,267.57Z"/>
          <path d="M557.75,262.88a3.12,3.12,0,0,0-.54,0,1.45,1.45,0,0,0-1.48.92v4.6h-1.11v-6.48h1.08v.75a1.74,1.74,0,0,1,1.55-.87,1.07,1.07,0,0,1,.49.09Z"/>
          <path d="M561.55,268.48a2.81,2.81,0,0,1-2.14-.87,3.19,3.19,0,0,1-.83-2.31v-.2a3.78,3.78,0,0,1,.37-1.72,2.92,2.92,0,0,1,1-1.19,2.63,2.63,0,0,1,1.43-.43,2.42,2.42,0,0,1,2,.84,3.56,3.56,0,0,1,.7,2.38v.46h-4.39a2.28,2.28,0,0,0,.56,1.54,1.74,1.74,0,0,0,1.36.59,2,2,0,0,0,1-.24,2.5,2.5,0,0,0,.71-.63l.68.53A2.74,2.74,0,0,1,561.55,268.48Zm-.14-5.81a1.49,1.49,0,0,0-1.12.49,2.39,2.39,0,0,0-.56,1.37H563v-.09a2.09,2.09,0,0,0-.45-1.3A1.4,1.4,0,0,0,561.41,262.67Z"/>
          <path d="M568.26,268.48a2.85,2.85,0,0,1-2.15-.87,3.18,3.18,0,0,1-.82-2.31v-.2a3.78,3.78,0,0,1,.37-1.72,2.85,2.85,0,0,1,1-1.19,2.63,2.63,0,0,1,1.43-.43,2.4,2.4,0,0,1,2,.84,3.56,3.56,0,0,1,.71,2.38v.46H566.4A2.23,2.23,0,0,0,567,267a1.72,1.72,0,0,0,1.36.59,1.91,1.91,0,0,0,1-.24,2.68,2.68,0,0,0,.72-.63l.67.53A2.73,2.73,0,0,1,568.26,268.48Zm-.14-5.81a1.48,1.48,0,0,0-1.12.49,2.33,2.33,0,0,0-.57,1.37h3.25v-.09a2.09,2.09,0,0,0-.46-1.3A1.39,1.39,0,0,0,568.12,262.67Z"/>
          <path d="M573.32,261.88l0,.82a2.38,2.38,0,0,1,1.94-.94c1.37,0,2.06.78,2.07,2.32v4.28h-1.11v-4.29a1.46,1.46,0,0,0-.32-1,1.29,1.29,0,0,0-1-.34,1.61,1.61,0,0,0-.94.29,2,2,0,0,0-.64.75v4.62h-1.1v-6.48Z"/>
        </g>
      </g>
      <g style="isolation: isolate">
        <path d="M372.08,176.67v7.45h-4.37V163H376a9.47,9.47,0,0,1,4.2.88,6.41,6.41,0,0,1,2.79,2.47,6.91,6.91,0,0,1,1,3.66,6.07,6.07,0,0,1-2.13,4.9,8.92,8.92,0,0,1-5.9,1.79Zm0-3.53H376a3.83,3.83,0,0,0,2.64-.81,3,3,0,0,0,.91-2.33,3.49,3.49,0,0,0-.91-2.51,3.43,3.43,0,0,0-2.53-1h-4Z"/>
        <path d="M390.75,170.12a5.24,5.24,0,0,1,4.2-2q5.13,0,5.2,5.94v10.06h-4.21v-10a2.89,2.89,0,0,0-.58-2,2.5,2.5,0,0,0-1.93-.65,2.86,2.86,0,0,0-2.68,1.42v11.17h-4.2V161.81h4.2Z"/>
        <path d="M402.66,176.12a9.33,9.33,0,0,1,.9-4.17,6.66,6.66,0,0,1,2.6-2.83,7.56,7.56,0,0,1,3.93-1,7.18,7.18,0,0,1,5.2,1.94,7.76,7.76,0,0,1,2.25,5.29l0,1.08a8.2,8.2,0,0,1-2,5.8,7.84,7.84,0,0,1-10.86,0,8.38,8.38,0,0,1-2-5.93Zm4.21.3a5.87,5.87,0,0,0,.84,3.42,2.76,2.76,0,0,0,2.41,1.19,2.79,2.79,0,0,0,2.39-1.17,6.44,6.44,0,0,0,.86-3.75,5.81,5.81,0,0,0-.86-3.4,2.79,2.79,0,0,0-2.42-1.21,2.74,2.74,0,0,0-2.38,1.2A6.56,6.56,0,0,0,406.87,176.42Z"/>
        <path d="M424,168.41l.13,1.81a5.49,5.49,0,0,1,4.52-2.1,4.61,4.61,0,0,1,3.73,1.46,6.88,6.88,0,0,1,1.25,4.39v10.15h-4.21V174.07a2.73,2.73,0,0,0-.58-1.94,2.61,2.61,0,0,0-1.93-.6,2.88,2.88,0,0,0-2.66,1.51v11.08h-4.21V168.41Z"/>
        <path d="M444.08,184.42a7.71,7.71,0,0,1-5.63-2.13,7.51,7.51,0,0,1-2.17-5.65v-.4a9.53,9.53,0,0,1,.91-4.24,6.71,6.71,0,0,1,2.6-2.87,7.21,7.21,0,0,1,3.83-1,6.51,6.51,0,0,1,5.08,2,8.25,8.25,0,0,1,1.86,5.77v1.71h-10a3.83,3.83,0,0,0,1.23,2.47,3.69,3.69,0,0,0,2.59.93,4.55,4.55,0,0,0,3.8-1.76l2.06,2.31a6.31,6.31,0,0,1-2.56,2.09A8.38,8.38,0,0,1,444.08,184.42Zm-.47-12.92a2.59,2.59,0,0,0-2,.85,4.39,4.39,0,0,0-1,2.42h5.85v-.34a3.09,3.09,0,0,0-.76-2.16A2.7,2.7,0,0,0,443.61,171.5Z"/>
        <path d="M477.86,184.12h-4.37L465,170.21v13.91h-4.36V163H465l8.51,13.95V163h4.35Z"/>
        <path d="M490.82,182.53a5.29,5.29,0,0,1-4.31,1.89,5,5,0,0,1-3.86-1.46,6.17,6.17,0,0,1-1.36-4.25v-10.3h4.2v10.16c0,1.64.75,2.46,2.24,2.46a3,3,0,0,0,2.94-1.48V168.41h4.22v15.71h-4Z"/>
        <path d="M502,168.41l.13,1.75a5.54,5.54,0,0,1,4.52-2,4.21,4.21,0,0,1,4.18,2.39,5.41,5.41,0,0,1,4.73-2.39,4.69,4.69,0,0,1,3.81,1.49,6.84,6.84,0,0,1,1.25,4.48v10H516.4v-10a3,3,0,0,0-.52-1.95,2.34,2.34,0,0,0-1.85-.62,2.62,2.62,0,0,0-2.62,1.8v10.79h-4.2v-10a3,3,0,0,0-.54-2,2.33,2.33,0,0,0-1.83-.61,2.72,2.72,0,0,0-2.59,1.48v11.11h-4.2V168.41Z"/>
        <path d="M538,176.41a9.48,9.48,0,0,1-1.62,5.89,5.35,5.35,0,0,1-4.51,2.12,4.9,4.9,0,0,1-4.08-2l-.19,1.67h-3.78V161.81h4.2v8a4.76,4.76,0,0,1,3.82-1.7,5.4,5.4,0,0,1,4.52,2.11,9.53,9.53,0,0,1,1.64,6Zm-4.21-.3a6.29,6.29,0,0,0-.75-3.48,2.58,2.58,0,0,0-2.26-1.1,2.77,2.77,0,0,0-2.76,1.64v6.2a2.8,2.8,0,0,0,2.79,1.66,2.6,2.6,0,0,0,2.68-2A10.55,10.55,0,0,0,533.82,176.11Z"/>
        <path d="M547.86,184.42a7.72,7.72,0,0,1-5.64-2.13,7.51,7.51,0,0,1-2.17-5.65v-.4A9.53,9.53,0,0,1,541,172a6.78,6.78,0,0,1,2.6-2.87,7.23,7.23,0,0,1,3.83-1,6.54,6.54,0,0,1,5.09,2,8.3,8.3,0,0,1,1.85,5.77v1.71h-10a3.88,3.88,0,0,0,1.23,2.47,3.71,3.71,0,0,0,2.59.93,4.55,4.55,0,0,0,3.8-1.76l2.07,2.31a6.38,6.38,0,0,1-2.56,2.09A8.41,8.41,0,0,1,547.86,184.42Zm-.48-12.92a2.61,2.61,0,0,0-2,.85,4.39,4.39,0,0,0-1,2.42h5.85v-.34a3.09,3.09,0,0,0-.76-2.16A2.7,2.7,0,0,0,547.38,171.5Z"/>
        <path d="M565.56,172.34a12.76,12.76,0,0,0-1.51-.11c-1.59,0-2.64.54-3.13,1.61v10.28h-4.2V168.41h4l.11,1.87a3.9,3.9,0,0,1,3.51-2.16,4.32,4.32,0,0,1,1.31.19Z"/>
        <path d="M375.54,214.58l4.8-15.91h4.86l-7.38,21.15h-4.55l-7.35-21.15h4.85Z"/>
        <path d="M393.51,220.12a7.71,7.71,0,0,1-5.63-2.13,7.51,7.51,0,0,1-2.17-5.65v-.4a9.53,9.53,0,0,1,.91-4.24,6.71,6.71,0,0,1,2.6-2.87,7.21,7.21,0,0,1,3.83-1,6.51,6.51,0,0,1,5.08,2,8.25,8.25,0,0,1,1.86,5.77v1.71H390a3.83,3.83,0,0,0,1.23,2.47,3.69,3.69,0,0,0,2.59.93,4.55,4.55,0,0,0,3.8-1.76l2.06,2.31a6.31,6.31,0,0,1-2.56,2.09A8.38,8.38,0,0,1,393.51,220.12ZM393,207.2a2.59,2.59,0,0,0-2,.85,4.39,4.39,0,0,0-1,2.42h5.85v-.34a3.14,3.14,0,0,0-.76-2.16A2.7,2.7,0,0,0,393,207.2Z"/>
        <path d="M411.21,208a12.61,12.61,0,0,0-1.51-.11c-1.59,0-2.63.54-3.12,1.61v10.28h-4.21V204.11h4l.12,1.87a3.89,3.89,0,0,1,3.5-2.16,4.23,4.23,0,0,1,1.31.19Z"/>
        <path d="M413.21,200a2,2,0,0,1,.63-1.55,2.73,2.73,0,0,1,3.44,0,2,2,0,0,1,.64,1.55,2.07,2.07,0,0,1-.65,1.57,2.37,2.37,0,0,1-1.71.61,2.4,2.4,0,0,1-1.71-.61A2.07,2.07,0,0,1,413.21,200Zm4.46,19.78h-4.21V204.11h4.21Z"/>
        <path d="M422.28,219.82V207.19h-2.34v-3.08h2.34v-1.34a5.42,5.42,0,0,1,1.52-4.1,5.88,5.88,0,0,1,4.26-1.46,9.53,9.53,0,0,1,2.14.29l-.05,3.25a5.2,5.2,0,0,0-1.28-.13q-2.37,0-2.37,2.22v1.27h3.13v3.08H426.5v12.63Z"/>
        <path d="M431.78,200a2,2,0,0,1,.63-1.55,2.73,2.73,0,0,1,3.44,0,2,2,0,0,1,.64,1.55,2.07,2.07,0,0,1-.64,1.57,2.4,2.4,0,0,1-1.71.61,2.37,2.37,0,0,1-1.71-.61A2.07,2.07,0,0,1,431.78,200Zm4.47,19.78H432V204.11h4.22Z"/>
        <path d="M446.25,216.73a2.72,2.72,0,0,0,1.89-.64,2.21,2.21,0,0,0,.76-1.7h3.94a5.41,5.41,0,0,1-.87,2.93,5.74,5.74,0,0,1-2.35,2.06,7.37,7.37,0,0,1-3.3.74A6.84,6.84,0,0,1,441,218a8.47,8.47,0,0,1-1.95-5.92v-.27A8.38,8.38,0,0,1,441,206a6.77,6.77,0,0,1,5.31-2.16,6.66,6.66,0,0,1,4.73,1.67,5.94,5.94,0,0,1,1.81,4.47H448.9a2.85,2.85,0,0,0-.76-2,2.52,2.52,0,0,0-1.92-.77,2.54,2.54,0,0,0-2.22,1.07,6.19,6.19,0,0,0-.74,3.47v.44a6.22,6.22,0,0,0,.74,3.49A2.54,2.54,0,0,0,446.25,216.73Z"/>
        <path d="M464.36,219.82a4.73,4.73,0,0,1-.42-1.4,5.1,5.1,0,0,1-4,1.7,5.63,5.63,0,0,1-3.84-1.34,4.3,4.3,0,0,1-1.51-3.37,4.43,4.43,0,0,1,1.85-3.84,9.17,9.17,0,0,1,5.36-1.35h1.93v-.9a2.55,2.55,0,0,0-.56-1.74,2.18,2.18,0,0,0-1.76-.65,2.5,2.5,0,0,0-1.67.5,1.74,1.74,0,0,0-.6,1.4H455a4.26,4.26,0,0,1,.85-2.53,5.62,5.62,0,0,1,2.38-1.82,8.75,8.75,0,0,1,3.46-.66,6.84,6.84,0,0,1,4.62,1.46,5.09,5.09,0,0,1,1.71,4.1v6.81a7.51,7.51,0,0,0,.63,3.39v.24Zm-3.48-2.92a3.58,3.58,0,0,0,1.72-.41,2.77,2.77,0,0,0,1.16-1.11v-2.7h-1.57c-2.1,0-3.22.72-3.36,2.18v.24a1.68,1.68,0,0,0,.55,1.3A2.14,2.14,0,0,0,460.88,216.9Z"/>
        <path d="M476.24,200.24v3.87h2.69v3.08h-2.69V215a1.83,1.83,0,0,0,.34,1.25,1.68,1.68,0,0,0,1.28.38,7.46,7.46,0,0,0,1.23-.1v3.18a8.68,8.68,0,0,1-2.54.38q-4.43,0-4.51-4.46v-8.47h-2.3v-3.08H472v-3.87Z"/>
        <path d="M481.25,200a2,2,0,0,1,.63-1.55,2.35,2.35,0,0,1,1.72-.61,2.38,2.38,0,0,1,1.72.61,2.21,2.21,0,0,1,0,3.12,2.7,2.7,0,0,1-3.42,0A2.07,2.07,0,0,1,481.25,200Zm4.46,19.78h-4.22V204.11h4.22Z"/>
        <path d="M488.52,211.82a9.33,9.33,0,0,1,.9-4.17,6.6,6.6,0,0,1,2.6-2.83,7.56,7.56,0,0,1,3.93-1,7.2,7.2,0,0,1,5.2,1.94,7.85,7.85,0,0,1,2.25,5.29l0,1.08a8.2,8.2,0,0,1-2,5.8,7.83,7.83,0,0,1-10.85,0,8.34,8.34,0,0,1-2-5.93Zm4.2.3a5.87,5.87,0,0,0,.84,3.42,3,3,0,0,0,4.8,0,6.37,6.37,0,0,0,.86-3.75,5.74,5.74,0,0,0-.86-3.4,3,3,0,0,0-4.8,0A6.56,6.56,0,0,0,492.72,212.12Z"/>
        <path d="M509.88,204.11l.13,1.81a5.52,5.52,0,0,1,4.53-2.1,4.59,4.59,0,0,1,3.72,1.46,6.82,6.82,0,0,1,1.25,4.39v10.15h-4.2v-10a2.78,2.78,0,0,0-.58-1.94,2.64,2.64,0,0,0-1.94-.6,2.89,2.89,0,0,0-2.66,1.51v11.08h-4.2V204.11Z"/>
      </g>
      <g>
        <rect id="Boundary" x="365.82" y="80" width="21.03" height="21" fill="none"/>
        <path id="_Color" data-name=" Color" d="M379.31,86.48l-1.23-1.23-5.25,5.25,5.25,5.25,1.23-1.23-4-4Z" fill="#fff"/>
      </g>
      <g id="_States-2" data-name=" States">
        <path id="States_Light_Primary_Container_100_Overlay-2" data-name="States Light Primary Container 100 Overlay" d="M370.2,371.88H648.8a3.5,3.5,0,0,1,3.5,3.5v33.25a3.5,3.5,0,0,1-3.5,3.5H370.2a3.5,3.5,0,0,1-3.5-3.5V375.38A3.5,3.5,0,0,1,370.2,371.88Z" fill="#7360f2"/>
      </g>
      <g id="_Label" data-name=" Label" style="isolation: isolate">
        <g style="isolation: isolate">
          <path d="M415.19,337.62h4v1.2h-5.48v-8.7h1.52Z" fill="#fff"/>
          <path d="M421,335.53a3.84,3.84,0,0,1,.37-1.72,2.86,2.86,0,0,1,1.06-1.17,3,3,0,0,1,1.57-.41,2.79,2.79,0,0,1,2.13.85,3.25,3.25,0,0,1,.88,2.23v.34a3.84,3.84,0,0,1-.37,1.72,2.69,2.69,0,0,1-1.05,1.16,3,3,0,0,1-1.59.41,2.8,2.8,0,0,1-2.19-.91,3.49,3.49,0,0,1-.82-2.43Zm1.45.12a2.66,2.66,0,0,0,.41,1.57,1.36,1.36,0,0,0,1.15.56,1.32,1.32,0,0,0,1.15-.57,2.89,2.89,0,0,0,.41-1.68,2.6,2.6,0,0,0-.42-1.56,1.43,1.43,0,0,0-2.28,0A2.83,2.83,0,0,0,422.44,335.65Z" fill="#fff"/>
          <path d="M429.08,335.54a3.76,3.76,0,0,1,.71-2.41,2.27,2.27,0,0,1,1.88-.9,2.13,2.13,0,0,1,1.74.77l.07-.65h1.31v6.28a2.6,2.6,0,0,1-.79,2,3,3,0,0,1-2.14.73,3.62,3.62,0,0,1-1.4-.29,2.54,2.54,0,0,1-1-.78l.69-.87a2.08,2.08,0,0,0,1.65.79,1.62,1.62,0,0,0,1.15-.39,1.49,1.49,0,0,0,.42-1.15v-.44a2.14,2.14,0,0,1-1.68.7,2.27,2.27,0,0,1-1.86-.9A3.9,3.9,0,0,1,429.08,335.54Zm1.45.13a2.55,2.55,0,0,0,.4,1.53,1.27,1.27,0,0,0,1.1.56,1.41,1.41,0,0,0,1.31-.75v-2.85a1.4,1.4,0,0,0-1.3-.74,1.27,1.27,0,0,0-1.11.57A2.89,2.89,0,0,0,430.53,335.67Z" fill="#fff"/>
          <path d="M437.38,330.67a.75.75,0,0,1,.21-.55.92.92,0,0,1,1.22,0,.72.72,0,0,1,.22.55.74.74,0,0,1-.22.55,1,1,0,0,1-1.22,0A.77.77,0,0,1,437.38,330.67Zm1.55,8.15h-1.46v-6.47h1.46Z" fill="#fff"/>
          <path d="M443,332.35l0,.75a2.33,2.33,0,0,1,1.89-.87c1.35,0,2,.77,2.06,2.32v4.27h-1.46v-4.19a1.32,1.32,0,0,0-.26-.91,1.12,1.12,0,0,0-.87-.3,1.39,1.39,0,0,0-1.31.8v4.6h-1.46v-6.47Z" fill="#fff"/>
          <path d="M459.35,336.82l1-4.47h1.42L460,338.82h-1.2l-1.39-4.44-1.37,4.44h-1.2l-1.77-6.47h1.42l1.05,4.42,1.33-4.42H458Z" fill="#fff"/>
          <path d="M463.87,330.67a.75.75,0,0,1,.21-.55.92.92,0,0,1,1.22,0,.76.76,0,0,1,.22.55.78.78,0,0,1-.22.55,1,1,0,0,1-1.22,0A.77.77,0,0,1,463.87,330.67Zm1.55,8.15H464v-6.47h1.46Z" fill="#fff"/>
          <path d="M469.91,330.78v1.57h1.15v1.08h-1.15V337a.79.79,0,0,0,.15.54.67.67,0,0,0,.52.16,2.22,2.22,0,0,0,.51-.06v1.13a3.61,3.61,0,0,1-.95.13c-1.12,0-1.68-.61-1.68-1.84v-3.67h-1.07v-1.08h1.07v-1.57Z" fill="#fff"/>
          <path d="M474.69,333.06a2.3,2.3,0,0,1,1.81-.83q2.07,0,2.1,2.37v4.22h-1.46v-4.17a1.26,1.26,0,0,0-.29-.95,1.19,1.19,0,0,0-.85-.28,1.41,1.41,0,0,0-1.31.78v4.62h-1.45v-9.18h1.45Z" fill="#fff"/>
          <path d="M492.29,336.67l1.34-6.55h1.5l-2,8.7h-1.45L490,332.47l-1.69,6.35h-1.46l-2-8.7h1.5l1.36,6.54,1.66-6.54h1.27Z" fill="#fff"/>
          <path d="M498.62,333.06a2.3,2.3,0,0,1,1.81-.83q2.07,0,2.1,2.37v4.22h-1.46v-4.17a1.26,1.26,0,0,0-.29-.95,1.19,1.19,0,0,0-.85-.28,1.41,1.41,0,0,0-1.31.78v4.62h-1.45v-9.18h1.45Z" fill="#fff"/>
          <path d="M509,338.82a2.37,2.37,0,0,1-.17-.6,2.46,2.46,0,0,1-3.29.17,1.79,1.79,0,0,1-.62-1.38,1.85,1.85,0,0,1,.77-1.59,3.75,3.75,0,0,1,2.2-.55h.9v-.42a1.17,1.17,0,0,0-.28-.81,1.14,1.14,0,0,0-.86-.3,1.29,1.29,0,0,0-.82.25.75.75,0,0,0-.31.63H505a1.6,1.6,0,0,1,.36-1,2.22,2.22,0,0,1,1-.72,3.25,3.25,0,0,1,1.35-.27,2.74,2.74,0,0,1,1.82.57,2,2,0,0,1,.69,1.61v2.92a3.17,3.17,0,0,0,.25,1.39v.1Zm-1.6-1a1.7,1.7,0,0,0,.82-.21,1.46,1.46,0,0,0,.57-.56v-1.22H508a2.1,2.1,0,0,0-1.21.28.9.9,0,0,0-.41.79.85.85,0,0,0,.28.67A1.08,1.08,0,0,0,507.36,337.78Z" fill="#fff"/>
          <path d="M514.64,330.78v1.57h1.15v1.08h-1.15V337a.79.79,0,0,0,.15.54.67.67,0,0,0,.52.16,2.22,2.22,0,0,0,.51-.06v1.13a3.63,3.63,0,0,1-1,.13c-1.11,0-1.67-.61-1.67-1.84v-3.67h-1.07v-1.08h1.07v-1.57Z" fill="#fff"/>
          <path d="M521.62,337.07a.68.68,0,0,0-.32-.6,3.74,3.74,0,0,0-1.06-.36,5.19,5.19,0,0,1-1.24-.39,1.65,1.65,0,0,1-1.09-1.53,1.74,1.74,0,0,1,.7-1.4,2.82,2.82,0,0,1,1.8-.56,2.89,2.89,0,0,1,1.88.58,1.83,1.83,0,0,1,.71,1.49h-1.45a.93.93,0,0,0-.31-.7,1.19,1.19,0,0,0-.83-.28,1.33,1.33,0,0,0-.78.22.71.71,0,0,0-.3.59.6.6,0,0,0,.28.53,4.1,4.1,0,0,0,1.14.37,5,5,0,0,1,1.34.45,1.89,1.89,0,0,1,.73.62,1.77,1.77,0,0,1-.49,2.3,3.12,3.12,0,0,1-1.9.54,3.36,3.36,0,0,1-1.42-.28,2.4,2.4,0,0,1-1-.79,1.91,1.91,0,0,1-.35-1.09h1.41a1,1,0,0,0,.39.8,1.56,1.56,0,0,0,1,.28,1.51,1.51,0,0,0,.87-.22A.69.69,0,0,0,521.62,337.07Z" fill="#fff"/>
          <path d="M530.43,336.8h-3.38l-.7,2h-1.58l3.3-8.7h1.36l3.3,8.7h-1.59Zm-2.95-1.22H530L528.74,332Z" fill="#fff"/>
          <path d="M540.05,335.65a3.89,3.89,0,0,1-.68,2.4,2.38,2.38,0,0,1-3.54.19v3.07h-1.46v-9h1.34l.07.66a2.11,2.11,0,0,1,1.74-.78,2.21,2.21,0,0,1,1.86.89,3.91,3.91,0,0,1,.67,2.44Zm-1.45-.12a2.76,2.76,0,0,0-.38-1.54,1.27,1.27,0,0,0-1.11-.57,1.35,1.35,0,0,0-1.28.74V337a1.34,1.34,0,0,0,1.29.75,1.23,1.23,0,0,0,1.09-.56A3,3,0,0,0,538.6,335.53Z" fill="#fff"/>
          <path d="M548.05,335.65a3.89,3.89,0,0,1-.68,2.4,2.19,2.19,0,0,1-1.84.89,2.17,2.17,0,0,1-1.7-.7v3.07h-1.46v-9h1.34l.06.66a2.14,2.14,0,0,1,1.74-.78,2.21,2.21,0,0,1,1.86.89,3.91,3.91,0,0,1,.68,2.44Zm-1.45-.12a2.68,2.68,0,0,0-.39-1.54,1.24,1.24,0,0,0-1.1-.57,1.33,1.33,0,0,0-1.28.74V337a1.34,1.34,0,0,0,1.29.75,1.26,1.26,0,0,0,1.09-.56A3,3,0,0,0,546.6,335.53Z" fill="#fff"/>
        </g>
      </g>
      <path d="M398.85,325.56a12.16,12.16,0,0,0-19.14,14.65L378,346.5l6.44-1.69a12.15,12.15,0,0,0,5.81,1.48h0a12.14,12.14,0,0,0,8.6-20.73Zm-2.44,13.07a3.2,3.2,0,0,1-2.12,1.5c-.58.05-1.12.26-3.78-.79a12.82,12.82,0,0,1-5.37-4.74,6.1,6.1,0,0,1-1.29-3.25,3.55,3.55,0,0,1,1.1-2.63,1.17,1.17,0,0,1,.84-.39h.6c.23,0,.48,0,.71.54s.89,2.18,1,2.33a.59.59,0,0,1,0,.55,2.2,2.2,0,0,1-.32.53c-.15.18-.33.41-.47.55s-.32.33-.14.64a9.85,9.85,0,0,0,1.75,2.18,8.71,8.71,0,0,0,2.54,1.56c.31.15.49.13.68-.08s.78-.92,1-1.23.42-.27.71-.16,1.84.86,2.15,1,.53.24.61.37A2.75,2.75,0,0,1,396.41,338.63Z" fill="#fff"/>
      <g id="_Label-2" data-name=" Label" style="isolation: isolate">
        <g style="isolation: isolate">
          <path d="M415.19,395.37h4v1.21h-5.48v-8.71h1.52Z" fill="#fff"/>
          <path d="M421,393.28a3.8,3.8,0,0,1,.37-1.71,2.83,2.83,0,0,1,1.06-1.18A3,3,0,0,1,424,390a2.79,2.79,0,0,1,2.13.85,3.25,3.25,0,0,1,.88,2.23v.35a3.83,3.83,0,0,1-.37,1.71,2.69,2.69,0,0,1-1.05,1.16,3,3,0,0,1-1.59.41,2.8,2.8,0,0,1-2.19-.91,3.49,3.49,0,0,1-.82-2.43Zm1.45.13a2.65,2.65,0,0,0,.41,1.56,1.34,1.34,0,0,0,1.15.56,1.32,1.32,0,0,0,1.15-.57,2.89,2.89,0,0,0,.41-1.68,2.6,2.6,0,0,0-.42-1.56,1.43,1.43,0,0,0-2.28,0A2.86,2.86,0,0,0,422.44,393.41Z" fill="#fff"/>
          <path d="M429.08,393.29a3.76,3.76,0,0,1,.71-2.41,2.27,2.27,0,0,1,1.88-.9,2.13,2.13,0,0,1,1.74.77l.07-.65h1.31v6.28a2.6,2.6,0,0,1-.79,2,3,3,0,0,1-2.14.73,3.62,3.62,0,0,1-1.4-.29,2.54,2.54,0,0,1-1-.78l.69-.87a2.08,2.08,0,0,0,1.65.79,1.62,1.62,0,0,0,1.15-.39,1.49,1.49,0,0,0,.42-1.15V396a2.16,2.16,0,0,1-1.68.69,2.27,2.27,0,0,1-1.86-.9A3.9,3.9,0,0,1,429.08,393.29Zm1.45.13a2.55,2.55,0,0,0,.4,1.53,1.27,1.27,0,0,0,1.1.56,1.41,1.41,0,0,0,1.31-.75v-2.85a1.4,1.4,0,0,0-1.3-.74,1.27,1.27,0,0,0-1.11.57A2.89,2.89,0,0,0,430.53,393.42Z" fill="#fff"/>
          <path d="M437.38,388.42a.75.75,0,0,1,.21-.55.92.92,0,0,1,1.22,0,.72.72,0,0,1,.22.55.74.74,0,0,1-.22.55,1,1,0,0,1-1.22,0A.77.77,0,0,1,437.38,388.42Zm1.55,8.16h-1.46V390.1h1.46Z" fill="#fff"/>
          <path d="M443,390.1l0,.75a2.33,2.33,0,0,1,1.89-.87c1.35,0,2,.77,2.06,2.32v4.28h-1.46v-4.2a1.32,1.32,0,0,0-.26-.91,1.12,1.12,0,0,0-.87-.3,1.39,1.39,0,0,0-1.31.8v4.61h-1.46V390.1Z" fill="#fff"/>
          <path d="M459.35,394.57l1-4.47h1.42L460,396.58h-1.2l-1.39-4.45-1.37,4.45h-1.2l-1.77-6.48h1.42l1.05,4.42,1.33-4.42H458Z" fill="#fff"/>
          <path d="M463.87,388.42a.75.75,0,0,1,.21-.55.92.92,0,0,1,1.22,0,.76.76,0,0,1,.22.55.78.78,0,0,1-.22.55,1,1,0,0,1-1.22,0A.77.77,0,0,1,463.87,388.42Zm1.55,8.16H464V390.1h1.46Z" fill="#fff"/>
          <path d="M469.91,388.53v1.57h1.15v1.08h-1.15v3.61a.79.79,0,0,0,.15.54.67.67,0,0,0,.52.16,2.22,2.22,0,0,0,.51-.06v1.13a3.61,3.61,0,0,1-.95.13c-1.12,0-1.68-.61-1.68-1.84v-3.67h-1.07V390.1h1.07v-1.57Z" fill="#fff"/>
          <path d="M474.69,390.81a2.3,2.3,0,0,1,1.81-.83q2.07,0,2.1,2.37v4.23h-1.46V392.4a1.26,1.26,0,0,0-.29-.95,1.19,1.19,0,0,0-.85-.28,1.41,1.41,0,0,0-1.31.78v4.63h-1.45v-9.19h1.45Z" fill="#fff"/>
          <path d="M488.52,394.68l2.22-6.81h1.66l-3.14,8.71h-1.47l-3.12-8.71h1.66Z" fill="#fff"/>
          <path d="M494.34,388.42a.75.75,0,0,1,.21-.55.79.79,0,0,1,.61-.23.82.82,0,0,1,.61.23.75.75,0,0,1,.21.55.77.77,0,0,1-.21.55.82.82,0,0,1-.61.22.79.79,0,0,1-.61-.22A.77.77,0,0,1,494.34,388.42Zm1.54,8.16h-1.45V390.1h1.45Z" fill="#fff"/>
          <path d="M504.24,393.41a3.85,3.85,0,0,1-.67,2.39,2.18,2.18,0,0,1-1.85.89,2.15,2.15,0,0,1-1.78-.81l-.07.7h-1.32v-9.19H500v3.34a2.09,2.09,0,0,1,1.69-.75,2.25,2.25,0,0,1,1.87.88,4,4,0,0,1,.67,2.46Zm-1.45-.13a2.81,2.81,0,0,0-.37-1.58,1.25,1.25,0,0,0-1.08-.53A1.35,1.35,0,0,0,500,392v2.67a1.37,1.37,0,0,0,1.34.84,1.2,1.2,0,0,0,1-.51,2.66,2.66,0,0,0,.39-1.54Z" fill="#fff"/>
          <path d="M509.41,396.69a3,3,0,0,1-2.24-.87,3.12,3.12,0,0,1-.86-2.31v-.18a3.83,3.83,0,0,1,.37-1.73,2.83,2.83,0,0,1,1.05-1.19,2.72,2.72,0,0,1,1.51-.43,2.55,2.55,0,0,1,2.05.85,3.54,3.54,0,0,1,.72,2.38v.59h-4.24a2,2,0,0,0,.54,1.27,1.61,1.61,0,0,0,1.18.46,2,2,0,0,0,1.63-.8l.79.74a2.7,2.7,0,0,1-1,.91A3.32,3.32,0,0,1,509.41,396.69Zm-.18-5.54a1.2,1.2,0,0,0-1,.42,2.09,2.09,0,0,0-.47,1.17h2.77v-.11a1.75,1.75,0,0,0-.39-1.11A1.21,1.21,0,0,0,509.23,391.15Z" fill="#fff"/>
          <path d="M517.62,391.43a3.81,3.81,0,0,0-.59-.05,1.34,1.34,0,0,0-1.35.77v4.43h-1.46V390.1h1.39l0,.73a1.63,1.63,0,0,1,1.46-.85,1.23,1.23,0,0,1,.51.09Z" fill="#fff"/>
        </g>
      </g>
      <path d="M399.74,382.07c-.63-.58-3.38-2.3-9.12-2.33,0,0-6.79-.44-10.09,2.54-1.83,1.81-2.45,4.5-2.52,7.78s-.41,9.56,5.6,11.23c0,0,0,4.66,0,5.06s.05.49.21.53a.55.55,0,0,0,.45-.18c1-1,4-4.68,4-4.68a25.14,25.14,0,0,0,7.77-.66c.83-.27,5.34-.65,6.1-6.81C402.94,388.21,401.86,383.88,399.74,382.07Zm-2.5,15h0a6.35,6.35,0,0,1-1.18,1.45h0a2.35,2.35,0,0,1-1.2.57.49.49,0,0,1-.17,0,1.43,1.43,0,0,1-.51-.07v0a17.58,17.58,0,0,1-3.29-1.52,19.65,19.65,0,0,1-2.76-1.82,16.38,16.38,0,0,1-1.25-1.1l0-.05,0,0,0,0,0,0a14.33,14.33,0,0,1-1.1-1.24,19.42,19.42,0,0,1-1.83-2.76,17.9,17.9,0,0,1-1.52-3.28l0,0a1.69,1.69,0,0,1-.08-.5,1.09,1.09,0,0,1,0-.18,2.4,2.4,0,0,1,.58-1.19h0A5.87,5.87,0,0,1,384.2,384h0a1.09,1.09,0,0,1,1.42.22s.73.88,1,1.31a13,13,0,0,1,.9,1.41,1.23,1.23,0,0,1-.22,1.57l-.71.56a1,1,0,0,0-.31.83,7.39,7.39,0,0,0,5,5,1,1,0,0,0,.83-.31l.57-.71a1.24,1.24,0,0,1,1.57-.22q.73.42,1.41.9c.43.31,1.31,1,1.31,1A1.09,1.09,0,0,1,397.24,397Zm-6.6-11.29a.39.39,0,0,1-.36-.41.38.38,0,0,1,.41-.35,5.54,5.54,0,0,1,3.85,1.7,5.21,5.21,0,0,1,1.35,3.77.39.39,0,0,1-.38.38h0a.4.4,0,0,1-.38-.4A4.43,4.43,0,0,0,394,387.2,4.83,4.83,0,0,0,390.64,385.75Zm3.28,4a.39.39,0,0,1-.36.41h0a.38.38,0,0,1-.38-.37,1.83,1.83,0,0,0-1.93-2,.39.39,0,0,1-.37-.4.4.4,0,0,1,.41-.37A2.57,2.57,0,0,1,393.92,389.77Zm3.6,1.85h0a.38.38,0,0,1-.38-.38,7.35,7.35,0,0,0-2.07-5.46,7.07,7.07,0,0,0-5.08-2,.39.39,0,0,1,0-.77h0a7.88,7.88,0,0,1,5.62,2.23,8.13,8.13,0,0,1,2.29,6A.37.37,0,0,1,397.52,391.62Z" fill="#fff"/>
      <g id="Container">
        <g id="Light_Elevation_02dp" data-name="Light Elevation 02dp">
          <g id="Shadow-2" data-name="Shadow">
            <rect id="Rectangle-4" x="366.7" y="429.63" width="285.6" height="40.25" rx="3.5" fill="#fff"/>
            <rect id="Rectangle-5" x="366.7" y="429.63" width="285.6" height="40.25" rx="3.5" fill="#fff"/>
            <rect id="Rectangle-6" x="366.7" y="429.63" width="285.6" height="40.25" rx="3.5" fill="#fff"/>
          </g>
        </g>
        <rect id="_Color-2" data-name=" Color" x="366.7" y="429.63" width="285.6" height="40.25" rx="3.5" fill="#6200ee"/>
        <g id="_States-3" data-name=" States">
          <g id="States_Light_Primary_Container_100_Overlay-3" data-name="States Light Primary Container 100 Overlay">
            <rect x="366.7" y="429.63" width="285.6" height="40.25" rx="3.5" fill="#4ea4f6"/>
          </g>
        </g>
      </g>
      <g id="_Label-3" data-name=" Label" style="isolation: isolate">
        <g style="isolation: isolate">
          <path d="M415.19,452.12h4v1.21h-5.48v-8.71h1.52Z" fill="#fff"/>
          <path d="M421,450a3.84,3.84,0,0,1,.37-1.72,2.74,2.74,0,0,1,1.06-1.17,3,3,0,0,1,1.57-.41,2.82,2.82,0,0,1,2.13.84,3.29,3.29,0,0,1,.88,2.24v.34a3.77,3.77,0,0,1-.37,1.71,2.72,2.72,0,0,1-1.05,1.17,3.08,3.08,0,0,1-1.59.41,2.8,2.8,0,0,1-2.19-.91,3.49,3.49,0,0,1-.82-2.43Zm1.45.12a2.66,2.66,0,0,0,.41,1.57,1.36,1.36,0,0,0,1.15.56,1.32,1.32,0,0,0,1.15-.57,2.93,2.93,0,0,0,.41-1.68,2.58,2.58,0,0,0-.42-1.56,1.43,1.43,0,0,0-2.28,0A2.83,2.83,0,0,0,422.44,450.16Z" fill="#fff"/>
          <path d="M429.08,450.05a3.74,3.74,0,0,1,.71-2.41,2.27,2.27,0,0,1,1.88-.9,2.13,2.13,0,0,1,1.74.77l.07-.65h1.31v6.27a2.6,2.6,0,0,1-.79,2,3,3,0,0,1-2.14.74,3.46,3.46,0,0,1-1.4-.3,2.43,2.43,0,0,1-1-.77l.69-.87a2.08,2.08,0,0,0,1.65.79,1.62,1.62,0,0,0,1.15-.39,1.49,1.49,0,0,0,.42-1.15v-.44a2.14,2.14,0,0,1-1.68.7,2.27,2.27,0,0,1-1.86-.9A3.91,3.91,0,0,1,429.08,450.05Zm1.45.12a2.6,2.6,0,0,0,.4,1.54,1.27,1.27,0,0,0,1.1.56,1.4,1.4,0,0,0,1.31-.76v-2.84a1.4,1.4,0,0,0-1.3-.74,1.27,1.27,0,0,0-1.11.57A2.88,2.88,0,0,0,430.53,450.17Z" fill="#fff"/>
          <path d="M437.38,445.18a.79.79,0,0,1,.21-.56,1,1,0,0,1,1.22,0,.76.76,0,0,1,.22.56.74.74,0,0,1-.22.55,1,1,0,0,1-1.22,0A.77.77,0,0,1,437.38,445.18Zm1.55,8.15h-1.46v-6.47h1.46Z" fill="#fff"/>
          <path d="M443,446.86l0,.75a2.33,2.33,0,0,1,1.89-.87c1.35,0,2,.77,2.06,2.32v4.27h-1.46v-4.19a1.3,1.3,0,0,0-.26-.91,1.12,1.12,0,0,0-.87-.3,1.39,1.39,0,0,0-1.31.8v4.6h-1.46v-6.47Z" fill="#fff"/>
          <path d="M459.35,451.33l1-4.47h1.42L460,453.33h-1.2l-1.39-4.44-1.37,4.44h-1.2l-1.77-6.47h1.42l1.05,4.42,1.33-4.42H458Z" fill="#fff"/>
          <path d="M463.87,445.18a.79.79,0,0,1,.21-.56,1,1,0,0,1,1.22,0,.8.8,0,0,1,.22.56.78.78,0,0,1-.22.55,1,1,0,0,1-1.22,0A.77.77,0,0,1,463.87,445.18Zm1.55,8.15H464v-6.47h1.46Z" fill="#fff"/>
          <path d="M469.91,445.29v1.57h1.15v1.08h-1.15v3.61a.75.75,0,0,0,.15.53.67.67,0,0,0,.52.17,2.22,2.22,0,0,0,.51-.06v1.12a3.26,3.26,0,0,1-.95.14c-1.12,0-1.68-.61-1.68-1.85v-3.66h-1.07v-1.08h1.07v-1.57Z" fill="#fff"/>
          <path d="M474.69,447.57a2.3,2.3,0,0,1,1.81-.83c1.38,0,2.08.79,2.1,2.36v4.23h-1.46v-4.17a1.24,1.24,0,0,0-.29-1,1.15,1.15,0,0,0-.85-.28,1.41,1.41,0,0,0-1.31.78v4.62h-1.45v-9.19h1.45Z" fill="#fff"/>
          <path d="M491.39,445.84h-2.72v7.49h-1.5v-7.49h-2.7v-1.22h6.92Z" fill="#fff"/>
          <path d="M495.8,453.45a3,3,0,0,1-2.24-.87,3.16,3.16,0,0,1-.86-2.32v-.18a3.89,3.89,0,0,1,.38-1.73,2.81,2.81,0,0,1,1.05-1.18,2.72,2.72,0,0,1,1.51-.43,2.54,2.54,0,0,1,2,.84,3.59,3.59,0,0,1,.72,2.39v.59h-4.23a1.88,1.88,0,0,0,.54,1.26,1.56,1.56,0,0,0,1.18.47,2,2,0,0,0,1.63-.81l.78.75a2.53,2.53,0,0,1-1,.9A3.3,3.3,0,0,1,495.8,453.45Zm-.17-5.54a1.24,1.24,0,0,0-1,.42,2.17,2.17,0,0,0-.47,1.16H497v-.11a1.87,1.87,0,0,0-.39-1.1A1.23,1.23,0,0,0,495.63,447.91Z" fill="#fff"/>
          <path d="M502.17,453.33h-1.45v-9.19h1.45Z" fill="#fff"/>
          <path d="M507.7,453.45a3,3,0,0,1-2.24-.87,3.12,3.12,0,0,1-.86-2.32v-.18a3.89,3.89,0,0,1,.37-1.73,2.81,2.81,0,0,1,1-1.18,2.74,2.74,0,0,1,1.51-.43,2.55,2.55,0,0,1,2.05.84,3.59,3.59,0,0,1,.72,2.39v.59h-4.23a1.92,1.92,0,0,0,.53,1.26,1.59,1.59,0,0,0,1.18.47,2,2,0,0,0,1.63-.81l.79.75a2.6,2.6,0,0,1-1,.9A3.3,3.3,0,0,1,507.7,453.45Zm-.17-5.54a1.24,1.24,0,0,0-1,.42,2.09,2.09,0,0,0-.47,1.16h2.77v-.11a1.75,1.75,0,0,0-.39-1.1A1.19,1.19,0,0,0,507.53,447.91Z" fill="#fff"/>
          <path d="M512.27,450.05a3.74,3.74,0,0,1,.71-2.41,2.27,2.27,0,0,1,1.88-.9,2.13,2.13,0,0,1,1.74.77l.07-.65H518v6.27a2.63,2.63,0,0,1-.79,2,3.05,3.05,0,0,1-2.15.74,3.45,3.45,0,0,1-1.39-.3,2.37,2.37,0,0,1-1-.77l.69-.87a2.07,2.07,0,0,0,1.65.79,1.59,1.59,0,0,0,1.14-.39,1.49,1.49,0,0,0,.42-1.15v-.44a2.12,2.12,0,0,1-1.67.7,2.27,2.27,0,0,1-1.86-.9A3.91,3.91,0,0,1,512.27,450.05Zm1.44.12a2.68,2.68,0,0,0,.4,1.54,1.3,1.3,0,0,0,1.11.56,1.39,1.39,0,0,0,1.3-.76v-2.84a1.37,1.37,0,0,0-1.29-.74,1.29,1.29,0,0,0-1.12.57A3,3,0,0,0,513.71,450.17Z" fill="#fff"/>
          <path d="M524,448.19a3.83,3.83,0,0,0-.6-.05,1.33,1.33,0,0,0-1.34.77v4.42h-1.46v-6.47H522l0,.72a1.64,1.64,0,0,1,1.46-.84,1.43,1.43,0,0,1,.51.08Z" fill="#fff"/>
          <path d="M529.66,453.33a2.37,2.37,0,0,1-.17-.6,2.46,2.46,0,0,1-3.29.17,1.8,1.8,0,0,1-.62-1.38,1.85,1.85,0,0,1,.77-1.59,3.72,3.72,0,0,1,2.2-.55h.9V449a1.12,1.12,0,0,0-.29-.8,1.1,1.1,0,0,0-.85-.3,1.27,1.27,0,0,0-.82.25.76.76,0,0,0-.32.63h-1.45a1.64,1.64,0,0,1,.35-1,2.46,2.46,0,0,1,1-.73,3.51,3.51,0,0,1,1.36-.26,2.75,2.75,0,0,1,1.82.57,2,2,0,0,1,.69,1.61v2.92a3.2,3.2,0,0,0,.25,1.39v.1Zm-1.6-1a1.63,1.63,0,0,0,.81-.21,1.39,1.39,0,0,0,.58-.57v-1.22h-.79a2.24,2.24,0,0,0-1.22.28.92.92,0,0,0-.4.8.85.85,0,0,0,.28.67A1.08,1.08,0,0,0,528.06,452.29Z" fill="#fff"/>
          <path d="M534.88,446.86l0,.68a2.31,2.31,0,0,1,1.86-.8,1.79,1.79,0,0,1,1.78,1,2.31,2.31,0,0,1,2-1,2,2,0,0,1,1.6.59,2.58,2.58,0,0,1,.53,1.75v4.25h-1.45v-4.21a1.27,1.27,0,0,0-.27-.9,1.19,1.19,0,0,0-.89-.29,1.23,1.23,0,0,0-.82.27,1.41,1.41,0,0,0-.43.69v4.44h-1.45v-4.26a1,1,0,0,0-1.17-1.14,1.28,1.28,0,0,0-1.24.71v4.69h-1.46v-6.47Z" fill="#fff"/>
        </g>
      </g>
      <path d="M390.2,437.61a12.2,12.2,0,1,0,12.21,12.2A12.2,12.2,0,0,0,390.2,437.61Zm5.22,12-.88,5.53s-.07.82-.67,1-1.59-.5-1.77-.64-2.64-1.69-3.56-2.47a.66.66,0,0,1,0-1.12c1.27-1.17,2.79-2.61,3.71-3.53.42-.42.85-1.41-.92-.21-2.5,1.73-5,3.35-5,3.35a2.1,2.1,0,0,1-1.63,0c-1.06-.31-2.29-.74-2.29-.74s-.85-.52.6-1.09l8.22-3.38c.81-.35,3.57-1.48,3.57-1.48s1.27-.5,1.16.7C396,446,395.7,447.76,395.42,449.63Z" fill="#fff"/>
      <line x1="628.87" y1="90.5" x2="724.58" y2="90.5" fill="none" stroke="#fa1c43" stroke-miterlimit="10" stroke-width="0.88"/>
      <g>
        <ellipse cx="735.09" cy="90.5" rx="10.51" ry="10.5"/>
        <path d="M731.51,95.83v-1l3.78-4.14c.45-.48.81-.91,1.1-1.27a4.76,4.76,0,0,0,.64-1,2.5,2.5,0,0,0,.21-1,1.87,1.87,0,0,0-1.07-1.73,2.59,2.59,0,0,0-1.12-.24,2.39,2.39,0,0,0-1.16.27,2,2,0,0,0-.75.76,2.34,2.34,0,0,0-.27,1.14h-1.32a3.28,3.28,0,0,1,.47-1.76,3.21,3.21,0,0,1,1.26-1.19,3.87,3.87,0,0,1,1.81-.43,3.73,3.73,0,0,1,1.79.43,3.22,3.22,0,0,1,1.22,1.15,3,3,0,0,1,.44,1.6,3.48,3.48,0,0,1-.23,1.23,5.33,5.33,0,0,1-.78,1.34c-.37.49-.89,1.09-1.54,1.79l-2.58,2.76v.09h5.33v1.23Z" fill="#fff"/>
      </g>
      <line x1="558.56" y1="334.25" x2="724.58" y2="334.25" fill="none" stroke="#fa1c43" stroke-miterlimit="10" stroke-width="0.88"/>
      <g>
        <ellipse cx="735.09" cy="333.57" rx="10.51" ry="10.5"/>
        <path d="M735.07,339.05a4,4,0,0,1-1.78-.39,3.37,3.37,0,0,1-1.26-1.07,2.94,2.94,0,0,1-.52-1.56h1.34a1.84,1.84,0,0,0,.71,1.29,2.37,2.37,0,0,0,1.51.5,2.42,2.42,0,0,0,1.26-.33,2.36,2.36,0,0,0,.86-.91,2.57,2.57,0,0,0,.32-1.31,2.72,2.72,0,0,0-.33-1.34,2.44,2.44,0,0,0-.9-.93,2.55,2.55,0,0,0-1.3-.35,3.77,3.77,0,0,0-1.08.16,2.75,2.75,0,0,0-.91.43l-1.3-.16.69-5.64h6v1.23h-4.79l-.41,3.38h.07a2.92,2.92,0,0,1,.88-.46,3.24,3.24,0,0,1,1.11-.19,3.52,3.52,0,0,1,3.18,1.87,4,4,0,0,1,.47,2,3.88,3.88,0,0,1-.49,2,3.55,3.55,0,0,1-1.34,1.35A3.82,3.82,0,0,1,735.07,339.05Z" fill="#fff"/>
      </g>
      <line x1="526.58" y1="392" x2="724.58" y2="392" fill="none" stroke="#fa1c43" stroke-miterlimit="10" stroke-width="0.88"/>
      <g>
        <ellipse cx="735.09" cy="392.11" rx="10.51" ry="10.5"/>
        <path d="M735.17,397.59a4.4,4.4,0,0,1-1.41-.27,3.35,3.35,0,0,1-1.29-.87,4.47,4.47,0,0,1-.94-1.66,8.57,8.57,0,0,1-.35-2.64,11.58,11.58,0,0,1,.29-2.7,6,6,0,0,1,.83-2,3.74,3.74,0,0,1,1.31-1.23,3.56,3.56,0,0,1,1.74-.42,3.77,3.77,0,0,1,1.71.38,3.19,3.19,0,0,1,1.23,1.07,3.63,3.63,0,0,1,.62,1.57h-1.37a2.47,2.47,0,0,0-.74-1.28,2,2,0,0,0-1.45-.51,2.4,2.4,0,0,0-2.1,1.16,5.85,5.85,0,0,0-.77,3.25h.09a3.32,3.32,0,0,1,1.71-1.34,3.4,3.4,0,0,1,1.11-.18,3.44,3.44,0,0,1,1.81.49,3.66,3.66,0,0,1,1.31,1.34,4.18,4.18,0,0,1,0,3.91,3.51,3.51,0,0,1-1.33,1.4A3.82,3.82,0,0,1,735.17,397.59Zm0-1.23a2.32,2.32,0,0,0,1.27-.36,2.59,2.59,0,0,0,.89-.94,2.8,2.8,0,0,0,0-2.62,2.43,2.43,0,0,0-.87-.93,2.33,2.33,0,0,0-1.26-.34,2.38,2.38,0,0,0-1,.21,2.66,2.66,0,0,0-.8.57,2.7,2.7,0,0,0-.54.83,2.53,2.53,0,0,0-.2,1A2.7,2.7,0,0,0,733,395a2.62,2.62,0,0,0,.89.95A2.24,2.24,0,0,0,735.17,396.36Z" fill="#fff"/>
      </g>
      <line x1="553.01" y1="449.75" x2="724.58" y2="449.75" fill="none" stroke="#fa1c43" stroke-miterlimit="10" stroke-width="0.88"/>
      <g>
        <ellipse cx="735.09" cy="449.65" rx="10.51" ry="10.5"/>
        <path d="M732.13,455l5.13-10.13v-.09h-5.91v-1.23h7.35v1.3L733.59,455Z" fill="#fff"/>
      </g>
      <line x1="294.42" y1="90.5" x2="407.87" y2="90.5" fill="none" stroke="#fa1c43" stroke-miterlimit="10" stroke-width="0.88"/>
      <g>
        <ellipse cx="283.91" cy="90.5" rx="10.51" ry="10.5"/>
        <path d="M285.47,84.37V95.83h-1.39v-10H284l-2.8,1.85V86.27l2.87-1.9Z" fill="#fff"/>
      </g>
      <line x1="294.42" y1="172.85" x2="357.94" y2="172.85" fill="none" stroke="#fa1c43" stroke-miterlimit="10" stroke-width="0.88"/>
      <g>
        <ellipse cx="283.91" cy="172.85" rx="10.51" ry="10.5"/>
        <path d="M284,178.33a4.91,4.91,0,0,1-2-.38,3.33,3.33,0,0,1-1.37-1.06,2.79,2.79,0,0,1-.55-1.58h1.41a1.58,1.58,0,0,0,.38.95,2.19,2.19,0,0,0,.88.62,3.09,3.09,0,0,0,1.2.22,3.19,3.19,0,0,0,1.31-.26,2.21,2.21,0,0,0,.9-.71,1.85,1.85,0,0,0,.32-1.07,2,2,0,0,0-.31-1.11,2,2,0,0,0-.92-.76,3.62,3.62,0,0,0-1.48-.27h-.92v-1.24h.92a2.79,2.79,0,0,0,1.2-.24,2,2,0,0,0,.82-.7,1.88,1.88,0,0,0,.29-1.05,2,2,0,0,0-.26-1,1.73,1.73,0,0,0-.72-.67,2.38,2.38,0,0,0-1.1-.24,3,3,0,0,0-1.12.21,2.09,2.09,0,0,0-.85.63,1.62,1.62,0,0,0-.36,1H280.3a2.79,2.79,0,0,1,.55-1.58,3.5,3.5,0,0,1,1.33-1.06,4.36,4.36,0,0,1,1.82-.38,3.58,3.58,0,0,1,1.82.43,3.06,3.06,0,0,1,1.18,1.13,2.94,2.94,0,0,1,.4,1.51,2.76,2.76,0,0,1-.5,1.65,2.6,2.6,0,0,1-1.38.94v.09a2.69,2.69,0,0,1,1.7.92,2.79,2.79,0,0,1,.61,1.83,2.9,2.9,0,0,1-.51,1.68,3.49,3.49,0,0,1-1.38,1.16A4.38,4.38,0,0,1,284,178.33Z" fill="#fff"/>
      </g>
      <line x1="294.42" y1="246.26" x2="357.94" y2="246.26" fill="none" stroke="#fa1c43" stroke-miterlimit="10" stroke-width="0.88"/>
      <g>
        <ellipse cx="283.91" cy="246.26" rx="10.51" ry="10.5"/>
        <path d="M279.77,249.24V248.1l5-8h.82v1.77h-.56l-3.8,6V248h6.78v1.23Zm5.39,2.35V240.13h1.33v11.46Z" fill="#fff"/>
      </g>
      <line x1="294.42" y1="543.9" x2="407.87" y2="543.9" fill="none" stroke="#fa1c43" stroke-miterlimit="10" stroke-width="0.88"/>
      <g>
        <ellipse cx="283.91" cy="543.9" rx="10.51" ry="10.5"/>
        <path d="M283.91,549.38a4.71,4.71,0,0,1-2-.41,3.33,3.33,0,0,1-1.37-1.13,2.89,2.89,0,0,1-.49-1.66,3,3,0,0,1,.29-1.34,2.93,2.93,0,0,1,.8-1,2.39,2.39,0,0,1,1.13-.52v-.07a2.17,2.17,0,0,1-1.31-.93,2.67,2.67,0,0,1-.48-1.62,2.71,2.71,0,0,1,.44-1.56,3.18,3.18,0,0,1,1.23-1.09,4,4,0,0,1,1.8-.39,4,4,0,0,1,1.78.39,3.18,3.18,0,0,1,1.23,1.09,2.72,2.72,0,0,1,.46,1.56,2.82,2.82,0,0,1-.49,1.62,2.21,2.21,0,0,1-1.3.93v.07a2.4,2.4,0,0,1,1.12.52,3,3,0,0,1,.79,1,3.18,3.18,0,0,1,.31,1.34,3,3,0,0,1-.5,1.66,3.3,3.3,0,0,1-1.38,1.13A4.61,4.61,0,0,1,283.91,549.38Zm0-1.23a3.21,3.21,0,0,0,1.34-.25,2,2,0,0,0,.88-.71,1.92,1.92,0,0,0,.31-1.07,2,2,0,0,0-.34-1.15,2.32,2.32,0,0,0-.89-.78,3.08,3.08,0,0,0-2.61,0,2.28,2.28,0,0,0-.9.78,1.94,1.94,0,0,0-.32,1.15,1.77,1.77,0,0,0,.3,1.07,1.93,1.93,0,0,0,.87.71A3.34,3.34,0,0,0,283.91,548.15Zm0-5.43a2.4,2.4,0,0,0,1.09-.25,1.87,1.87,0,0,0,.76-.69,2,2,0,0,0,.28-1,2,2,0,0,0-.28-1,1.84,1.84,0,0,0-.74-.67,2.45,2.45,0,0,0-1.11-.24,2.51,2.51,0,0,0-1.13.24,1.72,1.72,0,0,0-.74.67,1.89,1.89,0,0,0-.26,1,1.93,1.93,0,0,0,.27,1,1.79,1.79,0,0,0,.75.69A2.45,2.45,0,0,0,283.91,542.72Z" fill="#fff"/>
      </g>
    </g>
  </g>
</svg>
